<svg width="56" height="56" viewBox="0 0 56 56" fill="none" xmlns="http://www.w3.org/2000/svg">
<g id="Animals icons">
<path id="Vector" fill-rule="evenodd" clip-rule="evenodd" d="M5.07513 2.06182C4.20392 2.19125 3.13132 2.4367 2.88959 2.56207C2.29864 2.86843 1.92295 4.78118 2.0134 7.02154C2.12017 9.6625 2.83331 11.8412 4.31505 14.053C4.84019 14.8369 6.34069 16.4422 7.04065 16.969L7.38378 17.2273L6.78391 18.0782C4.13588 21.8347 2.63538 25.713 2.1223 30.1271C1.9262 31.8136 1.97791 34.6946 2.22968 36.1127C2.74479 39.014 3.82175 41.6004 5.50993 43.9903C6.30622 45.1176 8.17763 47.0942 9.33388 48.029C13.0069 50.9989 17.5886 52.9134 23.0734 53.7702C24.3829 53.9748 24.9153 54 27.9405 54C30.9691 54 31.4968 53.975 32.8077 53.7697C36.6461 53.1687 39.9373 52.1008 42.7954 50.529C48.0433 47.6431 51.6786 43.3512 53.1407 38.3152C53.4379 37.2914 53.7972 35.3838 53.7972 34.83C53.7972 34.6194 53.8428 34.4188 53.8986 34.3842C53.9598 34.3463 54 33.6356 54 32.5929C54 31.6422 53.9609 30.8887 53.9129 30.9183C53.865 30.9479 53.795 30.5961 53.7573 30.1363C53.6748 29.1308 53.2948 27.1964 52.9359 25.9561C52.1384 23.1992 50.7979 20.4441 49.1037 18.0793L48.4947 17.2293L48.8391 16.9712C49.5105 16.468 51.0354 14.8379 51.5499 14.0733C52.6504 12.4379 53.4946 10.329 53.727 8.63444C53.7904 8.17303 53.8776 7.79561 53.9211 7.79561C53.9645 7.79561 54 7.17517 54 6.41696C54 5.65876 53.9639 5.06069 53.9199 5.08794C53.8758 5.11529 53.7813 4.76339 53.7099 4.30594C53.5181 3.07768 53.3103 2.67229 52.7692 2.47097C52.0445 2.20122 50.6009 2 49.3909 2C44.806 2 40.3882 4.49852 38.0777 8.39845L37.6647 9.09545L36.6965 8.74852C35.4442 8.29972 33.5354 7.8077 32.7379 7.72819C32.1362 7.66831 32.0977 7.67847 31.8 7.977C31.5565 8.22112 31.4895 8.37669 31.4895 8.69718C31.4895 9.39489 31.747 9.58055 33.264 9.97587C37.8984 11.1838 41.7067 13.2604 44.88 16.3095C46.9108 18.2607 48.3326 20.2186 49.5885 22.793C50.7115 25.0954 51.3955 27.3885 51.6773 29.7965C51.8539 31.3054 51.7459 34.4135 51.4686 35.8077C50.2297 42.0351 46.1779 46.9808 40.1443 49.6305C32.5932 52.9465 21.8001 52.7352 14.6657 49.1318C9.21829 46.3803 5.57361 41.6441 4.41249 35.8077C4.13517 34.4135 4.02718 31.3054 4.20382 29.7965C4.65707 25.9235 6.25136 22.0428 8.69558 18.8631C11.9975 14.5676 16.8256 11.4855 22.6171 9.97587C23.6586 9.70439 23.9832 9.57709 24.1634 9.36916C24.7165 8.73134 24.2471 7.69393 23.4054 7.69393C22.8743 7.69393 20.4136 8.30796 19.1964 8.74425L18.2092 9.09809L17.8335 8.47227C17.1861 7.39388 16.6834 6.75789 15.7313 5.8129C13.9077 4.00264 11.7114 2.81637 9.13108 2.24799C8.44198 2.09619 5.69346 1.97001 5.07513 2.06182ZM6.90011 4.26079C9.20744 6.00883 11.3912 8.42397 12.7357 10.7148C13.0242 11.2064 13.2733 11.6229 13.2894 11.6406C13.3055 11.6582 13.8378 11.3592 14.4724 10.976C15.107 10.5927 15.7732 10.2182 15.9529 10.1435C16.1327 10.0689 16.2797 9.97353 16.2797 9.93154C16.2797 9.72514 15.1969 8.232 14.5587 7.55829C12.5987 5.48926 10.2011 4.35037 7.25521 4.08896L6.59612 4.0305L6.90011 4.26079ZM48.0175 4.14722C46.4466 4.32739 44.6846 4.97945 43.2355 5.91671C42.2661 6.54375 40.7777 8.04339 40.1215 9.05417C39.8354 9.49473 39.6014 9.88955 39.6014 9.93154C39.6014 9.97353 39.7484 10.0689 39.9282 10.1435C40.1079 10.2182 40.7741 10.5927 41.4087 10.976C42.0433 11.3592 42.5732 11.6582 42.5864 11.6406C42.5994 11.6229 42.8553 11.1974 43.1549 10.695C44.5474 8.35971 46.7725 5.9042 48.981 4.26557L49.285 4.03995L49.0315 4.04992C48.892 4.05541 48.4358 4.09923 48.0175 4.14722ZM4.06997 5.83608C3.80481 9.2927 5.33715 12.8262 8.10432 15.1391L8.69994 15.637L9.5746 14.7885C10.0556 14.3218 10.7125 13.7124 11.0342 13.4343L11.6192 12.9287L11.1356 12.0888C10.213 10.4865 9.36187 9.39092 7.91866 7.94812C6.63242 6.66231 5.5294 5.76125 4.50538 5.15982L4.13831 4.94427L4.06997 5.83608ZM50.958 5.43852C48.5787 6.97527 46.2617 9.45549 44.7454 12.0888L44.2619 12.9287L44.8468 13.4343C45.1686 13.7124 45.8245 14.3209 46.3047 14.7866L47.1774 15.6332L47.6735 15.2384C48.9011 14.2613 50.1345 12.6801 50.8058 11.2229C51.5705 9.56337 51.9819 7.30786 51.8065 5.73603L51.7185 4.94742L50.958 5.43852ZM2.02253 6.52464C2.02263 7.30755 2.03855 7.61442 2.05781 7.20649C2.07718 6.79866 2.07698 6.15809 2.05761 5.78301C2.03814 5.40802 2.02232 5.74172 2.02253 6.52464ZM27.4697 7.3828C26.8671 7.64116 26.7331 8.53236 27.2229 9.02356C27.4554 9.25661 27.6102 9.32076 27.9405 9.32076C29.2001 9.32076 29.3418 7.46648 28.0924 7.33297C27.8695 7.30918 27.5893 7.33165 27.4697 7.3828ZM21.154 26.2699C20.6672 26.5269 20.4157 26.9158 20.3666 27.4881C20.2895 28.3852 20.8346 29.0402 21.7224 29.1168C22.617 29.1941 23.2702 28.6475 23.3467 27.7573C23.3954 27.1895 23.1786 26.6841 22.7514 26.3701C22.3676 26.0881 21.5908 26.0393 21.154 26.2699ZM33.3219 26.2699C32.8351 26.5269 32.5836 26.9158 32.5344 27.4881C32.4573 28.3852 33.0025 29.0402 33.8902 29.1168C34.7849 29.1941 35.4381 28.6475 35.5145 27.7573C35.5633 27.1895 35.3464 26.6841 34.9192 26.3701C34.5354 26.0881 33.7586 26.0393 33.3219 26.2699ZM12.9842 28.5514C12.4944 28.8512 12.3347 29.3806 12.5787 29.8963C12.7842 30.3304 13.05 30.4358 14.1443 30.5163C15.1757 30.5923 16.2578 30.9392 17.2188 31.502C17.9314 31.9193 19.1751 33.0243 19.7465 33.7477L20.0563 34.1399L19.6472 35.0247C19.095 36.2191 18.9161 36.9303 18.8463 38.207C18.7471 40.0215 19.2242 41.5396 20.2278 42.6038L20.7343 43.1408L20.26 43.9829C19.9991 44.446 19.4532 45.187 19.0467 45.6297C18.197 46.5549 18.1073 46.8904 18.5639 47.4345C18.8963 47.8306 19.3082 47.9207 19.7739 47.6991C20.4093 47.3967 21.5745 45.9683 22.2043 44.7198C22.4421 44.2484 22.5081 44.1856 22.7 44.2485C24.3501 44.7895 25.8624 45.0089 27.9405 45.0089C30.0187 45.0089 31.531 44.7895 33.1811 44.2485C33.373 44.1856 33.439 44.2484 33.6768 44.7198C34.3066 45.9683 35.4718 47.3967 36.1072 47.6991C36.5729 47.9207 36.9848 47.8306 37.3172 47.4345C37.7738 46.8904 37.684 46.5549 36.8344 45.6297C36.4279 45.187 35.882 44.446 35.6211 43.9829L35.1467 43.1408L35.6532 42.6038C36.6557 41.541 37.133 40.0235 37.0363 38.207C36.9717 36.9914 36.7456 36.1128 36.1944 34.935L35.8232 34.1419L36.1338 33.7486C36.706 33.0244 37.9493 31.9195 38.6622 31.502C39.6569 30.9195 40.7282 30.5827 41.838 30.5037C42.6096 30.4488 42.8156 30.3967 43.0527 30.1966C43.4267 29.8811 43.5153 29.4595 43.3023 29.0095C43.0625 28.5027 42.721 28.3963 41.5481 28.4629C39.2901 28.5913 36.9287 29.8076 35.1425 31.7623L34.5294 32.4331L34.0488 32.0111C32.8452 30.9541 31.0818 30.1297 29.4615 29.8665C26.7683 29.429 23.8335 30.2537 21.8335 32.01L21.3541 32.431L20.6845 31.7058C19.4224 30.339 17.6553 29.211 16.0262 28.7323C15.1561 28.4767 13.2879 28.3655 12.9842 28.5514ZM2.02415 32.7065C2.02415 33.6852 2.03936 34.0856 2.05802 33.5962C2.07657 33.1069 2.07657 32.3062 2.05802 31.8169C2.03936 31.3276 2.02415 31.7279 2.02415 32.7065ZM26.521 31.9439C23.8721 32.4795 21.7987 34.4373 21.0825 37.0787C20.9692 37.4969 20.9019 38.113 20.8994 38.7564C20.8959 39.664 20.9255 39.8346 21.1745 40.345C21.514 41.0409 22.285 41.7861 23.0097 42.1188C25.472 43.2492 30.4108 43.2483 32.8749 42.1172C33.6084 41.7804 34.4542 40.959 34.7439 40.302C35.0418 39.6265 35.0664 38.0924 34.7958 37.0787C33.8229 33.4348 30.216 31.1965 26.521 31.9439ZM24.5323 37.2761C23.8725 37.5553 23.6945 38.3872 24.1784 38.9303C24.4216 39.2032 24.5457 39.2601 24.8986 39.2601C25.2514 39.2601 25.3756 39.2032 25.6187 38.9303C25.8232 38.7009 25.9126 38.4934 25.9126 38.248C25.9126 37.584 25.1214 37.0269 24.5323 37.2761ZM30.6162 37.2761C29.9621 37.5529 29.7784 38.3872 30.2541 38.9212C30.4919 39.1881 30.6137 39.2416 30.9825 39.2416C31.3513 39.2416 31.4731 39.1881 31.7109 38.9212C31.9078 38.7002 31.9965 38.4911 31.9965 38.248C31.9965 37.584 31.2053 37.0269 30.6162 37.2761Z" fill="#195093"/>
</g>
</svg>
