<svg width="27" height="26" viewBox="0 0 27 26" fill="none" xmlns="http://www.w3.org/2000/svg">
<g id="Group">
<path id="Vector" d="M14.8327 23.3327V8.43935C15.966 8.03935 16.8727 7.13268 17.2727 5.99935H21.4993L17.7927 14.6527C17.566 15.1727 17.486 15.7727 17.646 16.3193C18.166 18.0527 19.9927 19.3327 22.166 19.3327C24.3393 19.3327 26.1793 18.0527 26.686 16.3193C26.846 15.7727 26.766 15.1727 26.5394 14.6527L22.8327 5.99935H24.166C24.8993 5.99935 25.4993 5.39935 25.4993 4.66602C25.4993 3.93268 24.8993 3.33268 24.166 3.33268H17.2727C16.726 1.77268 15.246 0.666016 13.4993 0.666016C11.7527 0.666016 10.2727 1.77268 9.72602 3.33268H2.83268C2.09935 3.33268 1.49935 3.93268 1.49935 4.66602C1.49935 5.39935 2.09935 5.99935 2.83268 5.99935H4.16602L0.459349 14.6527C0.232682 15.1727 0.152682 15.7727 0.312682 16.3193C0.819349 18.0527 2.65935 19.3327 4.83268 19.3327C7.00602 19.3327 8.84602 18.0527 9.35268 16.3193C9.51268 15.7727 9.43268 15.1727 9.20602 14.6527L5.49935 5.99935H9.72602C10.126 7.13268 11.0327 8.03935 12.166 8.43935V23.3327H14.8327ZM12.166 23.3327H1.49935C0.766016 23.3327 0.166016 23.9327 0.166016 24.666C0.166016 25.3993 0.766016 25.9993 1.49935 25.9993H25.4993C26.2327 25.9993 26.8327 25.3993 26.8327 24.666C26.8327 23.9327 26.2327 23.3327 25.4993 23.3327H14.8327H12.166ZM24.6594 15.3327H19.6727L22.166 9.51935L24.6594 15.3327ZM7.32602 15.3327H2.33935L4.83268 9.51935L7.32602 15.3327ZM13.4993 5.99935C12.766 5.99935 12.166 5.39935 12.166 4.66602C12.166 3.93268 12.766 3.33268 13.4993 3.33268C14.2327 3.33268 14.8327 3.93268 14.8327 4.66602C14.8327 5.39935 14.2327 5.99935 13.4993 5.99935Z" fill="#D7B46C"/>
</g>
</svg>
