<svg width="32" height="32" viewBox="0 0 32 32" fill="none" xmlns="http://www.w3.org/2000/svg">
<g id="HighQualityRounded">
<path id="Vector" d="M25.3333 5.33398H6.66667C5.18667 5.33398 4 6.53398 4 8.00065V24.0007C4 25.4673 5.18667 26.6673 6.66667 26.6673H25.3333C26.8 26.6673 28 25.4673 28 24.0007V8.00065C28 6.53398 26.8 5.33398 25.3333 5.33398ZM13.6667 20.0007C13.12 20.0007 12.6667 19.5473 12.6667 19.0007V17.334H10V19.0007C10 19.5473 9.54667 20.0007 9 20.0007C8.45333 20.0007 8 19.5473 8 19.0007V13.0007C8 12.454 8.45333 12.0007 9 12.0007C9.54667 12.0007 10 12.454 10 13.0007V15.334H12.6667V13.0007C12.6667 12.454 13.12 12.0007 13.6667 12.0007C14.2133 12.0007 14.6667 12.454 14.6667 13.0007V19.0007C14.6667 19.5473 14.2133 20.0007 13.6667 20.0007ZM24 18.6673C24 19.4007 23.4 20.0007 22.6667 20.0007H21.6667V21.0007C21.6667 21.5473 21.2133 22.0007 20.6667 22.0007C20.12 22.0007 19.6667 21.5473 19.6667 21.0007V20.0007H18.6667C17.9333 20.0007 17.3333 19.4007 17.3333 18.6673V13.334C17.3333 12.6007 17.9333 12.0007 18.6667 12.0007H22.6667C23.4 12.0007 24 12.6007 24 13.334V18.6673ZM19.3333 18.0007H22V14.0007H19.3333V18.0007Z" fill="#D7B46C"/>
</g>
</svg>
