<svg width="31" height="30" viewBox="0 0 31 30" fill="none" xmlns="http://www.w3.org/2000/svg">
<g id="vk">
<path id="Vector" d="M0.333008 14.4C0.333008 7.61 0.333008 4.22 2.43301 2.1C4.56301 0 7.95301 0 14.733 0H15.933C22.723 0 26.113 0 28.233 2.1C30.333 4.23 30.333 7.62 30.333 14.4V15.6C30.333 22.39 30.333 25.78 28.233 27.9C26.103 30 22.713 30 15.933 30H14.733C7.94301 30 4.55301 30 2.43301 27.9C0.333008 25.77 0.333008 22.38 0.333008 15.6V14.4Z" fill="#0077FF"/>
<path id="Vector_2" d="M16.2936 21.6101C9.45355 21.6101 5.55355 16.9301 5.39355 9.13012H8.83355C8.94355 14.8501 11.4636 17.2701 13.4636 17.7701V9.13012H16.6936V14.0601C18.6636 13.8501 20.7436 11.6001 21.4436 9.12012H24.6636C24.401 10.4039 23.8765 11.6197 23.1229 12.6916C22.3693 13.7636 21.4027 14.6686 20.2836 15.3501C21.5325 15.9717 22.6355 16.8511 23.5197 17.9301C24.404 19.0092 25.0494 20.2634 25.4136 21.6101H21.8636C21.1036 19.2401 19.2036 17.4001 16.6936 17.1501V21.6101H16.3036H16.2936Z" fill="white"/>
</g>
</svg>
