<svg width="56" height="56" viewBox="0 0 56 56" fill="none" xmlns="http://www.w3.org/2000/svg">
<g clip-path="url(#clip0_2758_10739)">
<path fill-rule="evenodd" clip-rule="evenodd" d="M55.7756 30.0614C56.0442 30.801 55.6392 31.6539 54.9226 31.8579C54.4266 31.9991 49.1504 32.9811 47.5146 33.2366C45.6877 33.5221 44.4983 33.6523 42.3007 33.8077L40.5581 33.9308L39.9808 34.8623C39.6634 35.3745 39.0371 36.2274 38.5891 36.7576L37.7746 37.7216L37.4224 37.7355C37.0424 37.7506 36.7031 37.5126 36.6481 37.1922C36.5862 36.8321 36.7387 36.5412 37.3193 35.9128C37.6401 35.5655 38.173 34.8645 38.5034 34.3549C39.0908 33.4492 39.8457 31.9199 39.8353 31.6566C39.8267 31.4396 39.6381 31.468 39.3161 31.7346C38.8031 32.1593 37.6573 32.5435 36.1958 32.7807C34.2283 33.0998 34.1505 33.1273 33.6332 33.6867C32.6881 34.7086 32.2951 35.763 32.3617 37.0981C32.406 37.9874 32.7936 39.504 32.9723 39.4875C33.0303 39.4823 33.4203 39.25 33.8391 38.9714C34.6547 38.4287 35.0397 38.3537 35.3825 38.6704C35.6172 38.8871 35.6221 39.4453 35.3916 39.6948C35.1564 39.9493 33.1716 41.1915 32.7643 41.3392C32.1679 41.5553 31.8157 41.1231 31.331 39.5804C30.757 37.7536 30.6875 36.5054 31.0871 35.1993C31.2189 34.7689 31.3059 34.3942 31.2808 34.3667C31.2556 34.339 30.5359 34.3233 29.6814 34.3318C28.5112 34.3433 26.2715 34.2513 25.7728 34.1712C25.7549 34.1684 25.6536 34.402 25.5477 34.6904C25.3911 35.1168 25.2272 35.3545 24.6707 35.9627C23.9917 36.7047 23.9792 36.7134 23.1191 37.0419C22.1972 37.394 21.7377 37.385 21.4924 37.0097C21.4244 36.9057 21.3988 36.2209 21.435 35.4776C21.4711 34.7384 21.4886 33.9565 21.4738 33.7399L21.4468 33.3463L20.9179 33.196C20.6269 33.1133 20.3652 33.0713 20.3363 33.1027C20.3074 33.1339 20.2962 33.3136 20.3116 33.5018C20.3469 33.9344 20.1858 34.842 19.9808 35.3667C19.5881 36.3711 18.6963 37.3392 17.7473 37.7909C17.346 37.982 16.829 37.9109 16.6768 37.6436C16.6276 37.5572 16.5636 37.0067 16.5345 36.4202C16.5054 35.8336 16.3977 35.1402 16.2953 34.8793C16.1312 34.4614 16.0415 34.3529 15.5428 33.9695C15.0028 33.5542 14.976 33.518 14.9628 33.1834C14.9499 32.8563 14.9789 32.8068 15.393 32.4513C15.9167 32.0017 15.9574 32.0274 14.5457 31.9166C13.0787 31.8015 13.1267 31.788 12.7592 32.4188C12.5652 32.7516 12.094 33.3298 11.4989 33.965C10.6723 34.8473 10.4476 35.0394 9.77502 35.4397C9.34967 35.6928 8.61866 36.0454 8.15064 36.2232C7.44706 36.4905 7.23335 36.5266 6.91682 36.4316C6.37722 36.2699 6.18529 35.946 6.12825 35.101C6.05647 34.0378 6.21007 32.7533 6.54881 31.5833C6.95322 30.1869 6.93328 30.1286 5.8454 29.5209C4.29698 28.6558 3.82853 27.9637 2.39983 24.4311C1.86882 23.1181 1.14449 21.518 0.790205 20.8752C0.0535747 19.5387 0.000900868 19.2277 0.43225 18.7608C0.960019 18.1896 1.44067 18.221 3.44094 18.9575C4.5512 19.3662 5.83709 19.9887 6.12962 20.2589C6.37729 20.4877 6.41434 21.0454 6.19743 21.2802C5.89724 21.6051 5.54907 21.5558 4.47991 21.0369C3.3027 20.4657 2.08725 20.0441 2.19436 20.2443C2.57466 20.9548 3.23174 22.4413 3.77828 23.828C5.06276 27.0866 5.42166 27.6162 6.83386 28.3377C7.57548 28.7165 7.96366 29.1186 8.17767 29.7297C8.42473 30.4353 8.39658 30.9603 8.06851 31.767C7.8576 32.2855 7.63033 33.5636 7.60874 34.352L7.59476 34.8612L8.07196 34.6494C9.42641 34.0485 10.8161 32.7695 11.5622 31.4373C12.1919 30.3131 12.1902 30.3141 13.3214 30.3465C15.8036 30.4175 17.6864 30.7395 21.0147 31.6619C24.5905 32.6529 26.6409 32.9045 30.3579 32.8082C32.3651 32.7562 32.4103 32.7493 32.6816 32.4556C33.2313 31.8607 33.9765 31.5944 35.9165 31.2992C37.2335 31.0988 38.0499 30.8356 38.5149 30.4615C39.2534 29.8674 40.2381 29.8424 40.8441 30.4023C41.2027 30.7336 41.4266 31.4103 41.3307 31.8727C41.2847 32.0943 41.2453 32.2993 41.243 32.3283C41.2375 32.3994 42.0579 32.3789 42.7664 32.2904L43.3438 32.2181L42.9574 31.6567C42.3426 30.7636 42.0448 29.8738 41.999 28.7935C41.9362 27.3137 42.3595 26.0941 43.3158 24.9991L43.7506 24.5013L43.2655 24.3906C42.9988 24.3296 42.6066 24.2455 42.394 24.2037C41.4678 24.0211 40.7003 23.4474 40.1671 22.5389C39.6873 21.7214 39.6566 21.7272 38.637 22.8308C37.9765 23.5457 37.7325 23.76 37.4863 23.8411C37.067 23.9792 36.3505 23.984 36.0219 23.8508C35.662 23.7048 35.1115 23.1839 34.6161 22.5206C33.9389 21.6138 33.8333 21.6224 33.2027 22.6356C32.4789 23.7983 32.0111 24.1656 31.2467 24.1717C30.536 24.1773 30.1858 23.9821 29.365 23.123C28.4444 22.1593 28.3652 22.1467 27.9491 22.8987C27.6501 23.4389 27.1827 23.9773 26.7318 24.301C26.57 24.417 25.6661 24.6977 24.6866 24.9361C23.5901 25.203 22.0359 25.6955 20.5464 26.2481C18.0535 27.173 16.7982 27.5518 15.3609 27.813C14.0239 28.0559 12.0679 28.2176 11.8572 28.1026C11.7524 28.0454 11.1708 27.3287 10.5649 26.5101C9.95892 25.6914 9.05116 24.5773 8.5477 24.0344C7.71086 23.1319 7.63222 23.02 7.63121 22.7305C7.62984 22.3357 7.83661 22.1036 8.24801 22.0379C8.55322 21.9891 8.59239 22.0121 9.27301 22.6409C10.0232 23.334 10.8367 24.3023 11.8877 25.7532L12.5292 26.6388L13.4358 26.5573C14.5862 26.4539 15.0756 26.3592 14.8742 26.2788C14.7933 26.2466 14.4476 26.0373 14.1058 25.8137C13.4959 25.4146 13.484 25.401 13.461 25.0767C13.4194 24.49 13.7328 24.2823 14.7711 24.2085C15.7395 24.1398 16.3935 23.9485 16.6653 23.6543C17.1116 23.1712 17.1651 22.033 16.8168 20.4319C16.6117 19.4892 16.6188 19.3248 16.8765 19.046C17.129 18.7726 17.4898 18.7762 18.1142 19.0585C19.6482 19.752 21.022 21.215 22.015 23.2123C22.3829 23.9522 22.4039 23.9776 22.5956 23.9152C22.705 23.8796 23.4783 23.6874 24.3141 23.4882C25.7788 23.139 25.8463 23.1119 26.1876 22.7352C26.3824 22.5203 26.6635 22.1248 26.8123 21.8563C27.1723 21.2063 27.6236 20.934 28.3914 20.9037C29.1288 20.8745 29.475 21.063 30.3513 21.9707C30.9106 22.5501 31.093 22.6973 31.2276 22.6781C31.3554 22.6599 31.5355 22.4404 31.9519 21.7953C32.5771 20.8268 32.8701 20.5715 33.5473 20.4055C34.07 20.2775 34.7541 20.4684 35.179 20.861C35.3508 21.0197 35.6975 21.4289 35.9496 21.7704C36.3663 22.335 36.433 22.3955 36.6858 22.4378C36.9623 22.484 36.9669 22.4803 37.6491 21.6427C38.4479 20.6617 38.8346 20.4299 39.6381 20.4503C40.4016 20.4696 40.7709 20.7166 41.3278 21.5802C41.6235 22.0385 41.8973 22.3698 42.0654 22.4725C42.2125 22.5624 42.7941 22.7427 43.3579 22.8733C46.6263 23.6301 48.2044 24.4495 50.9468 26.8139C52.7671 28.3833 53.2384 28.6889 54.5051 29.1221C55.2946 29.392 55.6197 29.6325 55.7756 30.0614ZM52.7553 30.7822C51.5956 31.0053 47.5551 31.7029 46.251 31.9051C45.4513 32.0291 45.2752 31.9528 44.5129 31.1521C42.9675 29.5289 43.1928 26.8035 44.9829 25.4677C45.2514 25.2673 45.5361 25.1143 45.6156 25.1278C45.9364 25.1819 47.2598 25.8784 48.0128 26.3894C48.4532 26.6884 49.2789 27.3625 49.8476 27.8875C51.2874 29.2166 51.8333 29.5798 53.7429 30.4796C53.8516 30.5309 53.497 30.6396 52.7553 30.7822ZM47.5082 28.3453C47.5359 28.8067 47.5065 29.2794 47.4431 29.3956C47.2864 29.6825 46.7742 29.8538 46.5081 29.7084C46.1479 29.5116 46.0511 29.2531 46.0228 28.4113C45.9907 27.4578 46.1756 27.1441 46.7575 27.1648C47.3114 27.1845 47.452 27.4055 47.5082 28.3453ZM19.7331 22.3267C19.9783 22.6522 20.3606 23.2694 20.5827 23.6982L20.9864 24.4778L19.8684 24.9026C19.2535 25.1363 18.3679 25.4531 17.9005 25.6066C17.1632 25.849 17.0175 25.8635 16.7997 25.7162C16.6616 25.623 16.547 25.5299 16.5448 25.5095C16.5427 25.4891 16.7256 25.3861 16.9513 25.2805C17.2091 25.16 17.5171 24.9167 17.7797 24.6264C18.366 23.9782 18.5792 23.2347 18.5396 21.9763L18.5086 20.9924L18.8978 21.3636C19.1119 21.5679 19.4877 22.0012 19.7331 22.3267ZM24.0874 34.2546C23.9389 34.5959 23.1831 35.4453 23.0509 35.4196C23.002 35.41 22.9679 35.0316 22.9752 34.5785L22.9885 33.7548L23.4635 33.8457C23.7247 33.8958 24.0009 33.9415 24.0774 33.9475C24.172 33.9549 24.1751 34.053 24.0874 34.2546ZM18.8021 33.3144C18.8115 34.1179 18.6243 34.8753 18.2907 35.3839L18.0615 35.7333L17.8787 34.9668C17.7088 34.2549 17.3563 33.5028 17.0674 33.2358C16.9785 33.1536 17.0099 33.0134 17.1824 32.722C17.3129 32.5015 17.4601 32.321 17.5097 32.3209C17.5593 32.3207 17.8684 32.3856 18.1969 32.4651L18.7939 32.6095L18.8021 33.3144Z" fill="#195093"/>
</g>
<defs>
<clipPath id="clip0_2758_10739">
<rect width="56" height="56" fill="white" transform="matrix(-1 0 0 1 56 0)"/>
</clipPath>
</defs>
</svg>
