<svg width="56" height="56" viewBox="0 0 56 56" fill="none" xmlns="http://www.w3.org/2000/svg">
<path fill-rule="evenodd" clip-rule="evenodd" d="M26.864 12.0207C26.953 12.046 28.2633 13.4459 29.7759 15.1317L32.526 18.1969L33.9839 18.3184C35.692 18.4606 36.9545 18.7249 38.4868 19.2611C39.732 19.6968 39.8954 19.7672 42.8255 21.1322C43.9822 21.6711 45.404 22.319 45.9849 22.5722C48.0223 23.4597 50.8273 25.2151 53.3154 27.1595C55.2154 28.6443 55.3359 28.7713 55.3359 29.2876C55.3359 29.8918 54.9219 30.6734 54.2374 31.3614C52.7681 32.8382 48.5137 35.0141 44.3893 36.398C40.3088 37.7672 36.8074 38.3892 32.9927 38.4225L31.2711 38.4376L30.3887 39.2167C29.1624 40.2992 28.0987 41.596 27.0431 43.2955C26.6956 43.8549 26.6178 43.9177 26.1939 43.9816C25.9372 44.0203 25.3156 43.996 24.8127 43.9276C21.7542 43.5118 19.9496 41.9097 19.5164 39.2256C19.3562 38.2333 19.4035 38.1957 21.515 37.6352C22.4987 37.3742 23.2675 37.1298 23.2233 37.0922C23.1792 37.0546 22.6822 36.8613 22.1187 36.6627C21.5551 36.4641 20.6088 36.0862 20.0156 35.8228C19.4224 35.5594 18.8572 35.3193 18.7595 35.2892C18.6299 35.2494 18.1947 35.7354 17.1467 37.0908C16.244 38.2582 15.62 38.9699 15.4649 39.009C14.9434 39.1406 13.4691 38.1127 12.5697 36.9902C11.5745 35.7484 10.6682 33.7104 10.8288 33.0756C10.8687 32.9177 11.2355 32.5588 11.7594 32.1646C12.235 31.8069 12.625 31.4819 12.6261 31.4424C12.6324 31.2072 10.5028 31.1414 9.70078 31.3519C9.44227 31.4198 8.79399 31.7341 8.26014 32.0506C6.09821 33.3319 4.96149 33.7552 3.67659 33.7574C2.73485 33.759 2.35253 33.6342 1.87218 33.1685C0.969271 32.2932 1.08327 30.4835 2.17922 28.2915C2.40959 27.8308 2.5981 27.4029 2.5981 27.3404C2.5981 27.2781 2.42468 26.9736 2.21265 26.6638C1.03603 24.9444 0.43801 23.4092 0.359928 21.9072C0.310102 20.9482 0.324232 20.8455 0.535183 20.6335C0.817853 20.3494 1.49988 20.3286 2.83968 20.5636C4.56385 20.8658 6.23734 21.5762 8.04186 22.7722C8.96526 23.3841 9.54203 23.5473 10.7729 23.5449C11.8093 23.5429 12.7571 23.3231 13.6225 22.8841L14.2911 22.5447L14.0257 22.3246C13.6914 22.0471 12.3949 21.4381 11.797 21.2776C10.8638 21.0272 10.7394 20.4636 11.4686 19.7905C12.1847 19.1296 12.5973 18.922 13.9047 18.5647C15.5816 18.1064 15.729 18.0334 17.1397 16.963C17.824 16.4439 18.8967 15.7076 19.5233 15.327C20.8413 14.5264 23.631 13.1422 25.1923 12.514C26.4175 12.0211 26.6367 11.9564 26.864 12.0207ZM28.5917 15.871C29.7785 17.1893 30.7321 18.2855 30.7107 18.3068C30.6894 18.3283 29.7679 18.4412 28.663 18.5579C25.6253 18.8785 23.4703 19.2671 21.0448 19.9312C19.7269 20.2921 17.5538 21.043 16.4549 21.5174L15.5904 21.8905L15.0789 21.4381C14.7975 21.1892 14.2445 20.8241 13.8501 20.6268C13.315 20.3591 13.1741 20.245 13.2949 20.177C13.384 20.1268 14.0009 19.9372 14.6658 19.7554C16.1084 19.3613 16.6572 19.0952 17.589 18.3387C19.4588 16.8208 22.2607 15.2456 25.6513 13.8062L26.4339 13.4741L28.5917 15.871ZM34.7908 19.761C35.9383 19.92 37.2099 20.2473 38.3576 20.6794C39.3053 21.0363 43.4073 22.9027 43.5425 23.0386C43.5743 23.0705 43.426 23.3955 43.2131 23.7606C42.2188 25.4659 41.7491 27.0515 41.6708 28.9667C41.5692 31.4495 42.0066 32.4688 42.903 31.8378C43.1297 31.6782 43.1346 31.6257 43.0791 29.9678C43.0258 28.38 43.0412 28.1872 43.3011 27.178C43.5795 26.0974 44.5093 24.0232 44.8383 23.7487C45.2095 23.439 49.1779 25.7669 52.2758 28.1116C53.0544 28.7009 53.7523 29.2568 53.8267 29.3469C53.9382 29.4819 53.9083 29.5884 53.6562 29.954C53.1113 30.7444 51.882 31.5746 49.4481 32.7957C45.1347 34.9599 40.7612 36.3252 36.5634 36.8182C28.383 37.7786 21.1081 35.875 14.5512 31.0583C14.0369 30.6806 13.4008 30.2758 13.1376 30.1588C12.0952 29.6953 10.3043 29.6706 9.03978 30.1021C8.76606 30.1954 8.02859 30.5849 7.40102 30.9675C5.85663 31.9088 4.69694 32.3557 3.76189 32.3702C2.79881 32.3851 2.6475 32.2405 2.66433 31.3206C2.67899 30.5161 3.0364 29.5038 3.73386 28.2917C3.99895 27.8309 4.21583 27.3758 4.21583 27.2801C4.21583 27.1844 3.92809 26.7078 3.5765 26.2207C2.7822 25.1204 1.99469 23.5003 1.8024 22.5709C1.72227 22.1833 1.67308 21.8472 1.69325 21.8239C1.76821 21.7369 3.39413 22.0558 4.08889 22.2938C5.05855 22.6257 6.34476 23.2895 7.42917 24.0174C8.60148 24.8043 9.46351 25.0157 11.1106 24.9199C12.6267 24.8316 13.2152 24.6551 14.9165 23.7788C18.4116 21.9787 22.8929 20.6472 27.1875 20.1331C27.9883 20.0373 29.0075 19.9083 29.4523 19.8466C30.5883 19.689 33.8881 19.6361 34.7908 19.761ZM30.9353 21.5415C31.4353 21.901 31.1432 22.7844 30.5223 22.7901C30.3788 22.7914 30.0533 22.8873 29.7992 23.0032C28.7913 23.463 28.6058 25.1023 29.471 25.903C29.6178 26.0388 29.9872 26.194 30.3101 26.2556C31.0263 26.3921 31.1779 26.5148 31.1779 26.9576C31.1779 27.7296 30.3633 27.8894 29.2582 27.3343C28.2341 26.82 27.6402 25.9605 27.5398 24.8475C27.3901 23.1875 28.575 21.6751 30.2119 21.4369C30.5678 21.3852 30.7556 21.4123 30.9353 21.5415ZM24.962 22.4744C25.059 22.6136 25.1384 22.8164 25.1384 22.9251C25.1384 23.2445 24.6513 23.6549 24.2723 23.6549C23.7405 23.6549 23.305 24.1614 23.305 24.7797C23.305 25.6389 23.7244 26.1482 24.432 26.1482C24.7828 26.1482 25.1384 26.5029 25.1384 26.8528C25.1384 27.7814 23.8014 27.7682 22.7625 26.8293C22.0926 26.2239 21.862 25.6403 21.9214 24.7009C22.0047 23.3878 22.96 22.3735 24.2119 22.2691C24.7193 22.2268 24.806 22.2505 24.962 22.4744ZM19.7852 25.9433C19.8823 26.0825 19.9617 26.2853 19.9617 26.3941C19.9617 26.7134 19.4745 27.1238 19.0956 27.1238C18.3043 27.1238 17.8388 28.2058 18.2638 29.0572C18.4066 29.3431 18.8678 29.6171 19.2063 29.6171C19.4955 29.6171 19.9617 30.0824 19.9617 30.3711C19.9617 30.688 19.582 31.0264 19.2259 31.0264C18.3023 31.0264 17.2278 30.2555 16.8818 29.3447C16.6058 28.6185 16.702 27.6134 17.1109 26.9484C17.5319 26.2641 18.2663 25.8021 19.0352 25.738C19.5426 25.6957 19.6293 25.7195 19.7852 25.9433ZM47.1767 26.6316C48.0149 26.932 48.4682 27.6021 48.469 28.5422C48.4714 31.0457 44.8584 31.371 44.4897 28.9005C44.3382 27.8849 44.9223 26.8725 45.8148 26.6038C46.3619 26.439 46.6563 26.445 47.1767 26.6316ZM46.9715 28.1236C47.332 28.6407 47.0427 29.1835 46.4067 29.1835C46.0374 29.1835 45.8453 28.9506 45.8453 28.5028C45.8453 27.931 46.6489 27.6604 46.9715 28.1236ZM24.962 29.4122C25.059 29.5514 25.1384 29.7542 25.1384 29.863C25.1384 30.1823 24.6513 30.5927 24.2723 30.5927C24.0439 30.5927 23.8341 30.6948 23.6202 30.9096C23.3627 31.1685 23.305 31.3182 23.305 31.7281C23.305 32.6108 23.61 32.951 24.5731 33.1423C25.1395 33.2547 25.3289 33.8702 24.9227 34.2785C24.5041 34.6992 23.5418 34.4714 22.7625 33.7671C22.0926 33.1617 21.862 32.5782 21.9214 31.6387C22.0047 30.3256 22.96 29.3113 24.2119 29.2069C24.7193 29.1646 24.806 29.1884 24.962 29.4122ZM31.0085 29.4622C31.2118 29.6667 31.2298 30.1561 31.0431 30.4082C30.9689 30.5084 30.6438 30.6402 30.3207 30.7013C29.6707 30.8239 29.2878 31.1111 29.061 31.6462C28.6977 32.5031 29.0621 33.618 29.8184 33.9631C30.0619 34.0743 30.3872 34.1664 30.5411 34.1677C31.079 34.1722 31.3679 34.843 31.0313 35.3057C30.8341 35.5768 30.0418 35.5453 29.3314 35.2382C27.3009 34.3601 26.9115 31.4654 28.6257 29.9906C29.3501 29.3673 30.6313 29.0832 31.0085 29.4622ZM15.0007 33.044C15.5642 33.4309 16.3287 33.92 16.6997 34.1309C17.1275 34.3742 17.3464 34.5605 17.2979 34.6403C17.1235 34.9278 15.1956 37.3704 15.1218 37.3972C14.9656 37.4543 14.0467 36.6441 13.5569 36.0174C13.0573 35.3782 12.3045 33.942 12.3045 33.6283C12.3045 33.4693 13.7155 32.3196 13.8932 32.3338C13.9388 32.3375 14.4372 32.6571 15.0007 33.044ZM27.4032 38.0205C27.8481 38.0981 28.4431 38.1934 28.7254 38.2323L29.2389 38.3031L28.2938 39.3532C27.3613 40.3893 26.4409 41.5862 26.0482 42.2732C25.8193 42.6739 25.7622 42.6815 24.576 42.4689C22.9561 42.1785 21.8103 41.3947 21.2397 40.1865C21.0707 39.8287 20.9328 39.4629 20.933 39.3734C20.9334 39.2522 21.5986 39.0376 23.5483 38.5298C24.9863 38.1552 26.26 37.8557 26.3787 37.8641C26.4973 37.8725 26.9583 37.9429 27.4032 38.0205Z" fill="#195093"/>
</svg>
