<svg width="56" height="56" viewBox="0 0 56 56" fill="none" xmlns="http://www.w3.org/2000/svg">
<path fill-rule="evenodd" clip-rule="evenodd" d="M30.1686 14.1687C32.0665 14.8879 34.5079 16.7101 36.1211 18.6118C36.5724 19.1438 36.9731 19.6158 37.0116 19.6605C37.0501 19.7053 37.7759 19.8462 38.6245 19.9736C43.044 20.6376 47.1289 21.9648 51.1389 24.0396C53.8575 25.4463 55.235 26.338 55.6251 26.9438C56.2643 27.9364 56.0656 29.3798 55.185 30.1413C54.5044 30.7298 51.663 31.9334 48.3854 33.0213L46.2033 33.7456L45.8211 35.4507C45.4151 37.2615 45.2221 37.6079 44.6185 37.6079C44.1578 37.6079 44.007 37.4827 43.2447 36.4678C42.4768 35.4455 42.2278 34.9738 42.3492 34.7717C42.3929 34.6991 42.2614 34.6869 41.9929 34.7387C41.749 34.7857 41.2442 35.0728 40.8103 35.4114C40.0125 36.0338 39.0664 36.5258 38.1034 36.8187C37.1535 37.1078 36.5538 36.7045 36.7483 35.9077L36.8243 35.5969L35.2387 35.6725C32.2837 35.8136 31.397 36.3141 29.892 38.6904C28.8879 40.2758 28.0139 40.9005 26.6816 40.9853C25.1178 41.0847 24.8644 40.7247 24.9286 38.4945C24.966 37.1929 24.9986 37.0157 25.3337 36.2866C25.5341 35.8506 25.6879 35.4927 25.6755 35.4915C25.6631 35.4902 25.1387 35.4126 24.5101 35.3191C23.4766 35.1653 23.3563 35.1668 23.253 35.3353C22.5065 36.5519 21.4192 37.6052 20.3544 38.143C18.4952 39.0821 17.5041 38.9601 17.3075 37.7679C16.9323 35.4917 16.1677 33.8856 15.1253 33.1837C14.9384 33.0578 14.4876 32.9749 13.7843 32.9371C12.0195 32.8423 11.1592 33.1978 8.24756 35.2257C5.83908 36.9032 4.41164 37.5786 2.35939 38.0118C1.32933 38.2293 0.963377 38.1321 0.701889 37.5716C0.561088 37.2696 0.598576 37.1072 1.17607 35.5173C2.46934 31.9558 2.67928 31.0251 2.66488 28.9165C2.65596 27.6146 2.60168 27.127 2.36122 26.1909C2.00556 24.8062 1.35276 23.3421 0.575607 22.1869C-0.0834845 21.2071 -0.159373 20.7681 0.260059 20.363C0.487833 20.1431 0.656521 20.1076 1.47401 20.1076C2.68408 20.1076 4.52981 20.3887 5.80262 20.7667C6.41223 20.9478 7.55064 21.4659 8.75122 22.1088C9.82677 22.6846 11.0076 23.2364 11.3752 23.3347C12.1701 23.5476 13.7004 23.5661 14.9313 23.3781L15.8191 23.2423L15.2306 23.0452C14.2201 22.7066 13.8697 22.357 13.6657 21.4834C13.5492 20.9844 13.802 20.2157 14.2137 19.8168C14.6635 19.3812 15.8692 18.9303 16.5803 18.932C17.2844 18.9335 17.6159 19.2207 17.9392 20.1093C18.2249 20.8943 19.0576 21.9468 19.4792 22.0555C19.6369 22.0962 20.4356 21.8921 21.4966 21.54C22.4627 21.2193 23.5486 20.8896 23.9101 20.8073C24.5385 20.6641 24.5673 20.6415 24.5673 20.2912C24.5673 19.7559 24.8285 19.455 25.6382 19.0579C26.9213 18.4284 27.76 17.2602 28.2309 15.4459C28.5866 14.0756 29.0743 13.7541 30.1686 14.1687ZM30.7317 15.8296C31.9902 16.4771 33.2223 17.4131 34.4525 18.656L35.3662 19.5791L34.9869 19.6166C34.6872 19.6462 31.3773 19.9489 31 19.6166C29.9642 18.7046 29.2179 18.4125 28.5 18C27.8925 17.6507 29.254 15.8296 29.5 15.5C29.6871 15.2921 29.9435 15.5 30 15.5C30.0565 15.5 30.157 15.534 30.7317 15.8296ZM29.5 20C29.4176 20.0339 26.3505 20.2176 26.3125 20.1786C26.2746 20.1396 27.5458 19.0878 27.6663 19.0929C27.7994 19.0985 29.5912 19.9625 29.5 20ZM16.9034 20.7715C17.0569 21.137 17.38 21.7053 17.6212 22.0344L18.06 22.6329L17.7238 22.7349C17.446 22.8192 17.3195 22.7837 16.9961 22.5301C16.7808 22.3613 16.2529 22.0921 15.8229 21.9319C15.3931 21.7716 14.9997 21.5731 14.9489 21.4908C14.8337 21.3041 14.83 21.0298 14.9403 20.8575C15.0554 20.6779 15.8636 20.2699 16.2815 20.1804C16.6092 20.1101 16.6367 20.1362 16.9034 20.7715ZM36.1102 20.9352C38.1754 21.1201 40.4352 21.5151 42.5103 22.0538C44.2389 22.5027 44.5452 22.6171 44.767 22.8966C45.2505 23.5061 45.2189 23.8165 44.5229 25.2862C43.1046 28.2813 43.2257 30.2899 44.9221 31.9039C45.351 32.3119 45.5541 32.5793 45.4605 32.6127C45.2632 32.6832 43.0008 33.2622 42.9229 33.2622C42.8897 33.2622 43.0277 32.9894 43.2293 32.6559C43.7216 31.8421 43.7139 31.3008 43.1986 30.4687C42.921 30.0207 42.7999 29.6716 42.763 29.2133C42.6615 27.9554 42.0985 27.8046 40.5019 28.6074C39.2266 29.2487 38.2761 29.964 36.9959 31.2461C36.0923 32.1512 35.9959 32.2898 35.9959 32.685C35.9959 33.013 36.096 33.2458 36.3959 33.6146C36.6159 33.8852 36.7959 34.1471 36.7959 34.1966C36.7959 34.4645 31.0758 34.6378 28.4185 34.4503C24.6195 34.1823 20.7802 33.497 17.4243 32.4877C16.4186 32.1853 15.2615 31.8677 14.8529 31.7822C13.3448 31.4662 11.9583 31.6464 10.465 32.3528L9.67706 32.7253L9.18563 32.1675C8.91534 31.8608 8.54996 31.3077 8.3735 30.9384C8.07316 30.3098 8.05305 30.1739 8.05648 28.799C8.05991 27.4262 8.0839 27.2699 8.42574 26.3913C8.62688 25.8745 8.97843 25.1272 9.20712 24.7304L9.623 24.0091L10.1263 24.2379C12.3684 25.2572 15.3405 24.9115 21.2588 22.9429C24.4759 21.8728 26.2004 21.4599 28.9528 21.1008C30.6539 20.8788 34.4892 20.79 36.1102 20.9352ZM48.1103 23.9646C50.4932 25.0017 54.5092 27.2337 54.5102 27.5213C54.5103 27.5615 54.2547 27.6291 53.9422 27.6718C53.2459 27.7667 52.0418 28.3933 51.7324 28.8217C51.5161 29.1212 51.5141 29.1537 51.6956 29.4383C51.9106 29.7757 52.4487 29.8512 52.6714 29.5754C52.9368 29.2468 54.6247 28.6642 54.6247 28.9012C54.6247 29.1124 54.1656 29.3953 52.9104 29.9579C51.3908 30.6389 48.7778 31.6328 47.9208 31.8557C47.3539 32.0032 47.3063 31.9962 46.6808 31.671C45.9152 31.2728 45.0782 30.367 44.9137 29.7585C44.5989 28.5935 44.8382 27.3893 45.7425 25.5886C46.1987 24.6805 46.3244 24.3103 46.3308 23.8563C46.3352 23.5388 46.3903 23.2822 46.4532 23.2861C46.516 23.29 47.2617 23.5954 48.1103 23.9646ZM4.21541 21.6559C5.20674 21.8653 6.52617 22.3386 7.3671 22.7718C7.7463 22.9671 8.45568 23.2261 8.47374 23.2423C8.49191 23.2586 7.60093 25.1465 7.5271 25.3132L7.3927 25.6161L6.94206 25.3798C6.28651 25.0361 4.90696 24.7007 3.99255 24.6626L3.19757 24.6295L3.01265 24.1597C2.91094 23.9013 1.50533 21.4804 1.47401 21.3996C1.40293 21.2158 3.23152 21.448 4.21541 21.6559ZM51.0458 25.5649C51.7206 25.8665 51.9931 26.9458 51.5428 27.5341C50.7714 28.5418 49.2532 28.0292 49.2532 26.7608C49.2532 26.1934 49.469 25.8188 49.9402 25.5684C50.3433 25.3542 50.5729 25.3535 51.0458 25.5649ZM4.75599 25.9914C5.40514 26.1028 6.47246 26.4853 6.77372 26.7144C6.93086 26.8339 7.072 27.5694 7 28V28.5C7 28.5 7 30 6.77372 30.5C6.66118 30.7487 3.87689 30.7869 3.87689 30.7869L3.75895 26.9231L3.58672 25.8628L3.87689 25.8765C4.03644 25.884 4.4321 25.9357 4.75599 25.9914ZM41.596 29.7888C41.596 29.9456 41.7747 30.4265 41.9932 30.8571C42.3663 31.5926 42.3803 31.6606 42.2246 31.9702C41.9492 32.5173 40.9861 33.6882 40.3875 34.2037C39.8752 34.6448 38.4282 35.4938 38.1886 35.4938C38.1344 35.4938 38.0872 35.1885 38.0837 34.8154C38.0771 34.0849 37.8372 33.3574 37.4709 32.9568L37.2426 32.707L38.0764 31.9112C39.1725 30.865 39.8992 30.3101 40.753 29.867C41.1379 29.6672 41.485 29.5038 41.5244 29.5038C41.5638 29.5038 41.596 29.632 41.596 29.7888ZM7.26435 31.5197C7.31156 31.598 8.69469 33.2978 8.52532 33.4474C7.57366 34.2887 1.93688 37.1892 2.09928 36.7552C2.14191 36.6413 3.20477 33.4125 3.33723 32.9502L3.57803 32.1096L4.21541 32.0283C4.56593 31.9835 5.34022 31.82 5.93588 31.6649C7.19247 31.3379 7.15738 31.3416 7.26435 31.5197ZM18.0209 33.9693C18.1605 34.0269 19.1119 34.2662 20.1352 34.5008C21.1585 34.7355 22.0108 34.9426 22.0291 34.961C22.1183 35.0507 20.7832 36.4011 20.2815 36.7285C19.6415 37.1462 18.6547 37.5608 18.552 37.4553C18.5151 37.4173 18.412 37.0289 18.3229 36.5922C18.2338 36.1555 17.9896 35.3596 17.7802 34.8238C17.3776 33.7931 17.4002 33.7126 18.0209 33.9693ZM44.6575 35.0116L44.4256 35.9608L44.0405 35.463C43.8287 35.1892 43.6549 34.9091 43.6543 34.8406C43.6527 34.6664 44.0902 34.2022 44.2576 34.2002C44.3337 34.1993 44.507 34.168 44.6428 34.1306L44.8894 34.0626L44.6575 35.0116ZM30.0894 35.8334L30.5256 35.9049L30.1033 36.3159C29.871 36.542 29.3534 37.2434 28.953 37.8745C28.4192 38.716 28.0855 39.113 27.7016 39.3633C27.1936 39.6943 26.3385 39.9371 26.196 39.7906C26.1573 39.7509 26.1268 39.2304 26.1282 38.6338C26.1309 37.383 26.4172 36.5159 26.9913 36.0196C27.3045 35.7486 27.4076 35.7298 28.4904 35.7454C29.1298 35.7545 29.8494 35.7941 30.0894 35.8334Z" fill="#195093"/>
</svg>
