<svg width="56" height="56" viewBox="0 0 56 56" fill="none" xmlns="http://www.w3.org/2000/svg">
<g id="Animals icons">
<path id="Vector" fill-rule="evenodd" clip-rule="evenodd" d="M11.4518 2.25191C10.3778 2.75642 9.55391 4.0547 9.0015 6.11322C8.75346 7.03745 8.72798 7.31814 8.72156 9.19176C8.71493 11.1266 8.73283 11.324 9.01266 12.4019C9.17658 13.0336 9.46716 13.923 9.65824 14.3781L10.0058 15.2056L8.51795 15.9474C7.68381 16.3632 6.63648 16.9878 6.1345 17.3686C4.27935 18.7758 2.69456 20.8021 1.70197 23.0359C0.601789 25.5117 0.703806 25.8655 2.66087 26.3603C4.87155 26.9192 7.09297 26.9841 9.95155 26.5734L10.4516 26.5015L10.452 27.9696C10.4526 30.5235 10.7947 33.3093 11.3967 35.6632L11.6911 36.8141L11.1688 37.4605C10.5473 38.2298 9.80848 39.722 9.54022 40.75C9.26744 41.7955 9.2707 44.5587 9.54622 45.6132C10.2499 48.3077 12.0314 50.3639 14.8905 51.7818C18.111 53.379 22.8336 54.1148 29.0337 53.9855C34.412 53.8733 38.1351 53.1857 40.966 51.7818C43.8251 50.3639 45.6065 48.3077 46.3102 45.6132C46.5858 44.5587 46.589 41.7955 46.3162 40.75C46.048 39.722 45.3091 38.2298 44.6876 37.4605L44.1654 36.8141L44.4597 35.6632C45.0617 33.3093 45.4039 30.5235 45.4045 27.9696L45.4048 26.5015L45.9049 26.5734C48.6982 26.9748 50.783 26.9257 53.0377 26.4054C54.1693 26.1443 54.4764 25.9994 54.7665 25.5905C54.9579 25.3205 55.0947 24.4821 54.9185 24.6591C54.8818 24.6961 54.6512 24.2323 54.4062 23.6286C52.9236 19.9753 50.5843 17.4817 47.063 15.8009L45.8535 15.2236L46.2149 14.3199C46.4135 13.8229 46.7006 12.9535 46.8529 12.3878C47.1082 11.4384 47.1294 11.1961 47.1294 9.24462C47.1294 7.2988 47.1076 7.04908 46.8558 6.11322C46.4923 4.76283 45.9521 3.61595 45.3901 3.00117C44.3278 1.83938 42.8113 1.67054 41.7366 2.59424C41.1865 3.06725 41.0549 3.31961 40.7793 4.43181C40.5222 5.46905 40.0517 6.35871 39.1942 7.42926C38.0301 8.88242 35.0173 11.5845 34.673 11.484C34.5824 11.4576 34.0854 11.3108 33.5684 11.1577C32.7816 10.9247 32.5716 10.8981 32.2791 10.9952C31.8177 11.1481 31.6131 11.4635 31.6131 12.0217C31.6131 12.6621 31.8896 12.899 33.0576 13.2588L34.0208 13.5555L34.0909 14.2127C34.2471 15.6772 33.7541 17.1794 32.8293 18.0579C32.1599 18.6937 31.6275 18.9748 30.5875 19.242C29.495 19.5226 28.5092 19.5035 27.3492 19.1797C25.3433 18.6196 23.5651 18.8823 22.161 19.9464C21.2895 20.6067 20.8773 21.1665 20.0848 22.7649C19.4363 24.073 19.2847 24.2991 18.8214 24.6503C18.0033 25.2705 17.448 25.4205 15.9789 25.4181C14.779 25.4162 14.6705 25.3975 13.8206 25.0469L12.9257 24.6778L12.9453 24.2561C12.9732 23.6582 13.444 22.1 13.9423 20.9567C15.0688 18.372 17.244 15.9797 19.7969 14.5178C20.6433 14.0331 22.0563 13.4526 23.1289 13.149C23.9529 12.9157 24.2434 12.6195 24.2434 12.0127C24.2434 11.6546 24.1815 11.4844 23.9763 11.2782C23.5751 10.8754 23.3046 10.8566 22.2794 11.1602C21.7672 11.3119 21.2741 11.4576 21.1834 11.484C20.8392 11.5845 17.8263 8.88242 16.6622 7.42926C15.8047 6.35871 15.3342 5.46905 15.0771 4.43181C14.8015 3.31961 14.6699 3.06725 14.1198 2.59424C13.3686 1.94859 12.3703 1.82056 11.4518 2.25191ZM12.1428 4.34501C11.8157 4.65108 11.3499 5.67416 11.0674 6.70728C10.8735 7.41689 10.8365 7.82551 10.8383 9.24462C10.8402 10.7281 10.8744 11.0662 11.1171 11.9934C11.4649 13.3218 12.3521 15.131 13.149 16.1368L13.7514 16.897L14.8962 15.6933C16.061 14.4684 17.088 13.6186 18.2265 12.9375L18.8604 12.5584L18.104 11.9145C16.9379 10.922 15.3592 9.28004 14.6456 8.31754C13.8959 7.3063 13.2656 6.04514 13.0219 5.06858C12.7704 4.06062 12.5982 3.91884 12.1428 4.34501ZM43.1129 4.24923C43.0541 4.32196 42.9297 4.69062 42.8363 5.06858C42.5993 6.02748 41.9313 7.34563 41.1618 8.37273C40.4337 9.34464 38.9005 10.9375 37.7542 11.9131L36.9994 12.5554L37.6489 12.9538C38.8549 13.6936 39.8104 14.4841 40.9603 15.6933L42.105 16.897L42.7074 16.1368C43.5049 15.1304 44.3917 13.3217 44.739 11.9934C44.9775 11.0811 45.0164 10.7115 45.023 9.29748C45.0295 7.91273 44.9939 7.52219 44.7936 6.77737C44.284 4.88367 43.5241 3.74059 43.1129 4.24923ZM27.4394 10.4541C26.8137 10.7227 26.6745 11.6494 27.1832 12.1601C27.4246 12.4025 27.5852 12.4692 27.9282 12.4692C29.236 12.4692 29.3831 10.5411 28.0859 10.4023C27.8544 10.3775 27.5635 10.4009 27.4394 10.4541ZM36.2436 15.1802C36.2407 16.0026 35.9623 17.1125 35.5461 17.9619C34.1719 20.7658 30.3214 22.2574 26.9288 21.2999C25.7933 20.9794 24.963 20.9599 24.2383 21.2363C23.1627 21.6468 22.5638 22.3464 21.8788 23.9929C21.031 26.0307 19.5876 27.1286 17.1896 27.5591C16.0902 27.7566 14.6528 27.6256 13.4431 27.2178C13.0113 27.0722 12.628 26.9532 12.5913 26.9532C12.4873 26.9532 12.6435 30.1395 12.8156 31.5317C12.983 32.8857 13.3772 34.9922 13.5008 35.193C13.5551 35.2814 13.759 35.2118 14.1992 34.9549C18.0223 32.7229 26.2253 31.7221 33.4028 32.6121C36.7243 33.024 39.8865 33.921 41.6542 34.953C41.9944 35.1516 42.2959 35.2908 42.3243 35.2622C42.4281 35.1581 42.7919 33.4199 42.9902 32.0807C43.6387 27.7019 43.1747 23.6672 41.6494 20.4238C40.7582 18.5289 39.0513 16.4979 37.3858 15.3505C36.2449 14.5646 36.2457 14.5647 36.2436 15.1802ZM10.7675 17.2533C9.76837 17.7016 8.33529 18.4603 7.78614 18.8317C6.88599 19.4403 5.50071 20.8158 4.88576 21.7115C4.39853 22.4211 3.50311 24.0927 3.50311 24.2928C3.50311 24.456 5.40248 24.6587 6.87209 24.6522C8.22685 24.6463 9.18753 24.5469 10.2493 24.3028L10.7313 24.192L10.8684 23.4845C11.0623 22.4844 11.6163 20.8241 12.1228 19.7255C12.3604 19.21 12.5226 18.7343 12.4833 18.6683C12.3566 18.4553 11.1476 17.1207 11.0882 17.1282C11.0566 17.1321 10.9122 17.1884 10.7675 17.2533ZM44.0777 17.8346C43.7295 18.2271 43.4124 18.6022 43.3731 18.6683C43.3338 18.7343 43.4961 19.21 43.7337 19.7255C44.2399 20.8234 44.7942 22.4842 44.9877 23.4827C45.1241 24.1867 45.1253 24.1884 45.5541 24.2938C46.5314 24.5338 47.7499 24.6609 49.0896 24.6625C50.5719 24.6643 52.3533 24.4645 52.3533 24.2966C52.3533 24.1012 51.5793 22.6498 51.0355 21.8256C50.4018 20.8651 49.033 19.4826 48.0731 18.8335C47.3389 18.3371 44.9643 17.121 44.7291 17.121C44.719 17.121 44.4259 17.442 44.0777 17.8346ZM1.00291 25.103C1.00407 25.3356 1.02565 25.4183 1.05081 25.2868C1.07597 25.1553 1.07503 24.965 1.04871 24.8639C1.02239 24.7628 1.00175 24.8704 1.00291 25.103ZM20.8819 28.8239C20.3764 29.0912 20.1153 29.4956 20.0643 30.0906C19.9843 31.0234 20.5503 31.7045 21.472 31.7842C22.4009 31.8645 23.0791 31.2962 23.1585 30.3706C23.2091 29.7802 22.9839 29.2546 22.5404 28.9282C22.1419 28.6349 21.3353 28.5842 20.8819 28.8239ZM33.5156 28.8239C33.0101 29.0912 32.749 29.4956 32.698 30.0906C32.618 31.0234 33.1839 31.7045 34.1057 31.7842C35.0346 31.8645 35.7128 31.2962 35.7922 30.3706C35.8428 29.7802 35.6176 29.2546 35.1741 28.9282C34.7756 28.6349 33.969 28.5842 33.5156 28.8239ZM24.7987 34.5669C16.9915 35.0863 12.7269 37.2465 11.6533 41.2257C11.3998 42.1652 11.3993 44.1946 11.6523 45.1375C12.1851 47.1238 13.5507 48.6935 15.6864 49.7749C18.7952 51.3489 24.3722 52.1274 30.3234 51.8181C36.6688 51.4883 40.4963 50.277 42.6771 47.9084C43.8995 46.5807 44.3885 45.2299 44.3885 43.1816C44.3885 41.7498 44.2215 40.9589 43.6848 39.8513C43.2836 39.0234 41.8685 37.5492 40.9609 37.0137C39.0012 35.8575 36.2881 35.0936 32.8238 34.7227C30.9976 34.5272 26.6606 34.443 24.7987 34.5669ZM24.3895 38.788C24.0387 38.9366 23.717 39.423 23.717 39.8046C23.717 40.2355 24.1294 40.7563 24.5318 40.8335C25.1716 40.9564 25.8226 40.4233 25.8226 39.7766C25.8226 39.1081 24.9898 38.5336 24.3895 38.788ZM30.7064 38.788C30.0272 39.0758 29.8364 39.9433 30.3303 40.4985C30.5773 40.776 30.7037 40.8317 31.0866 40.8317C31.4696 40.8317 31.596 40.776 31.843 40.4985C32.0473 40.2687 32.1395 40.0513 32.1395 39.7985C32.1395 39.1081 31.318 38.5289 30.7064 38.788Z" fill="#195093"/>
</g>
</svg>
