<svg width="32" height="32" viewBox="0 0 32 32" fill="none" xmlns="http://www.w3.org/2000/svg">
<g id="ReceiptRounded">
<path id="Vector" d="M28 2.94693C27.8267 2.94693 27.6533 3.01359 27.5333 3.14693L26.48 4.20026C26.2133 4.46693 25.8 4.46693 25.5333 4.20026L24.48 3.14693C24.2133 2.88026 23.8 2.88026 23.5333 3.14693L22.48 4.20026C22.2133 4.46693 21.8 4.46693 21.5333 4.20026L20.48 3.14693C20.2133 2.88026 19.8 2.88026 19.5333 3.14693L18.48 4.20026C18.2133 4.46693 17.8 4.46693 17.5333 4.20026L16.48 3.14693C16.2133 2.88026 15.8 2.88026 15.5333 3.14693L14.48 4.20026C14.2133 4.46693 13.8 4.46693 13.5333 4.20026L12.4667 3.13359C12.2 2.86693 11.7867 2.86693 11.52 3.13359L10.4667 4.20026C10.2 4.46693 9.78667 4.46693 9.52 4.20026L8.46667 3.13359C8.2 2.86693 7.78667 2.86693 7.52 3.13359L6.46667 4.20026C6.2 4.46693 5.78667 4.46693 5.52 4.20026L4.46667 3.13359C4.34667 3.01359 4.17333 2.94693 4 2.94693V29.0669C4.17333 29.0669 4.34667 29.0003 4.46667 28.8669L5.52 27.8136C5.78667 27.5469 6.2 27.5469 6.46667 27.8136L7.52 28.8669C7.78667 29.1336 8.2 29.1336 8.46667 28.8669L9.52 27.8136C9.78667 27.5469 10.2 27.5469 10.4667 27.8136L11.52 28.8669C11.7867 29.1336 12.2 29.1336 12.4667 28.8669L13.52 27.8136C13.7867 27.5469 14.2 27.5469 14.4667 27.8136L15.52 28.8669C15.7867 29.1336 16.2 29.1336 16.4667 28.8669L17.52 27.8136C17.7867 27.5469 18.2 27.5469 18.4667 27.8136L19.52 28.8669C19.7867 29.1336 20.2 29.1336 20.4667 28.8669L21.52 27.8136C21.7867 27.5469 22.2 27.5469 22.4667 27.8136L23.52 28.8669C23.7867 29.1336 24.2 29.1336 24.4667 28.8669L25.52 27.8136C25.7867 27.5469 26.2 27.5469 26.4667 27.8136L27.52 28.8669C27.6533 29.0003 27.8267 29.0669 27.9867 29.0669V2.94693H28ZM22.6667 22.6669H9.33333C8.6 22.6669 8 22.0669 8 21.3336C8 20.6003 8.6 20.0003 9.33333 20.0003H22.6667C23.4 20.0003 24 20.6003 24 21.3336C24 22.0669 23.4 22.6669 22.6667 22.6669ZM22.6667 17.3336H9.33333C8.6 17.3336 8 16.7336 8 16.0003C8 15.2669 8.6 14.6669 9.33333 14.6669H22.6667C23.4 14.6669 24 15.2669 24 16.0003C24 16.7336 23.4 17.3336 22.6667 17.3336ZM22.6667 12.0003H9.33333C8.6 12.0003 8 11.4003 8 10.6669C8 9.93359 8.6 9.33359 9.33333 9.33359H22.6667C23.4 9.33359 24 9.93359 24 10.6669C24 11.4003 23.4 12.0003 22.6667 12.0003Z" fill="#D7B46C"/>
</g>
</svg>
