<svg width="27" height="28" viewBox="0 0 27 28" fill="none" xmlns="http://www.w3.org/2000/svg">
<g id="Group">
<g id="Group_2">
<path id="Vector" d="M16.166 11.3328V9.30612C16.166 8.35946 15.2193 7.71946 14.3393 8.06612L9.49935 9.99946V9.35946C9.49935 8.39946 8.52602 7.74612 7.64602 8.13279L1.77935 10.6395C0.806016 11.0661 0.166016 12.0261 0.166016 13.0928V24.6661C0.166016 26.1328 1.36602 27.3328 2.83268 27.3328H24.166C25.6327 27.3328 26.8327 26.1328 26.8327 24.6661V11.3328H16.166ZM9.49935 20.6661C9.49935 21.3995 8.89935 21.9995 8.16602 21.9995C7.43268 21.9995 6.83268 21.3995 6.83268 20.6661V17.9995C6.83268 17.2661 7.43268 16.6661 8.16602 16.6661C8.89935 16.6661 9.49935 17.2661 9.49935 17.9995V20.6661ZM14.8327 20.6661C14.8327 21.3995 14.2327 21.9995 13.4993 21.9995C12.766 21.9995 12.166 21.3995 12.166 20.6661V17.9995C12.166 17.2661 12.766 16.6661 13.4993 16.6661C14.2327 16.6661 14.8327 17.2661 14.8327 17.9995V20.6661ZM20.166 20.6661C20.166 21.3995 19.566 21.9995 18.8327 21.9995C18.0993 21.9995 17.4993 21.3995 17.4993 20.6661V17.9995C17.4993 17.2661 18.0993 16.6661 18.8327 16.6661C19.566 16.6661 20.166 17.2661 20.166 17.9995V20.6661Z" fill="#D7B46C"/>
<path id="Vector_2" d="M24.3269 0.666016H22.6869C22.0069 0.666016 21.4469 1.17268 21.3669 1.83935L20.4336 9.33268H26.5669L25.6469 1.83935C25.5669 1.17268 24.9936 0.666016 24.3269 0.666016Z" fill="#D7B46C"/>
</g>
</g>
</svg>
