<svg width="56" height="56" viewBox="0 0 56 56" fill="none" xmlns="http://www.w3.org/2000/svg">
<g id="Animals icons">
<path id="Vector" fill-rule="evenodd" clip-rule="evenodd" d="M43.359 2.15604C43.1192 2.24038 42.6768 2.53315 42.3761 2.80651C41.6516 3.46492 41.3616 4.12241 41.3663 5.09655L41.3698 5.81846L40.794 5.99518C40.0246 6.23145 38.6711 6.9492 37.9396 7.50893C37.0546 8.18603 35.7657 9.58739 35.0519 10.6486C33.8787 12.3925 32.7988 14.8732 32.1832 17.2382C32.0025 17.9322 31.8279 18.5319 31.7952 18.5708C31.7625 18.6098 31.0689 18.8112 30.2539 19.0185C29.0956 19.3132 28.7086 19.4556 28.4813 19.6707C27.9699 20.1548 28.1459 21.0521 28.8029 21.3104C29.1338 21.4405 29.722 21.3392 31.604 20.828L32.903 20.4753L33.7502 20.6903C36.0644 21.2779 37.5374 22.3981 37.9799 23.9068C38.1831 24.5998 38.1785 26.1522 37.971 26.9269C37.4409 28.9062 35.8277 30.2735 33.4439 30.7641C32.0587 31.0493 29.6684 30.9801 28.1077 30.6098C26.1613 30.1479 24.26 29.2719 22.4931 28.0229C20.7568 26.7956 18.4209 24.3893 16.9355 22.2979C16.6724 21.9274 16.4572 21.6007 16.4572 21.5718C16.4572 21.5428 16.7311 21.6039 17.0659 21.7074C17.8483 21.9496 19.3368 22.2084 19.9496 22.2088C21.0834 22.2095 21.542 21.0012 20.6473 20.3706C20.4919 20.2611 19.9601 20.1293 19.2899 20.0341C17.381 19.7631 15.9941 19.2281 12.0025 17.223C8.17521 15.3004 7.36264 14.9982 6.38031 15.1321C5.06656 15.3112 4.10805 16.4322 4.01148 17.9025C3.95302 18.7925 4.09702 19.2659 4.93258 20.9301L5.54045 22.1409L5.41618 23.3222C5.21475 25.2368 5.53187 26.4407 6.56989 27.7028C6.98941 28.2128 7.04184 28.3364 7.10888 28.973C7.29979 30.7843 7.92626 31.8636 9.53352 33.1494C10.301 33.7633 10.551 34.1639 10.7285 35.0642C11.0377 36.633 11.5953 37.8724 12.5712 39.1603C14.03 41.0853 16.0601 42.3011 18.3787 42.6381L19.1709 42.7534L19.5971 43.4309C19.8315 43.8036 20.2402 44.3278 20.5053 44.5958L20.9871 45.0831L20.7153 46.9787C20.5657 48.0212 20.4087 48.9051 20.3665 48.943C20.3242 48.9808 19.7727 49.1812 19.1409 49.3882C18.3115 49.66 17.9352 49.8368 17.7868 50.0243C17.4181 50.4904 17.5823 51.2646 18.1072 51.5345C18.4952 51.7341 18.6323 51.7211 19.7139 51.384C20.3679 51.1801 20.6732 51.125 20.7001 51.2061C20.7217 51.2708 20.8617 51.7352 21.0113 52.2382C21.28 53.1414 21.4473 53.4376 21.7926 53.6214C21.8898 53.6731 22.5915 53.766 23.3519 53.8276C24.914 53.9546 25.2519 53.8871 25.5065 53.3976C25.9642 52.5173 25.3409 51.7809 24.1381 51.7809C23.0689 51.7809 23.0598 51.7738 22.7392 50.6944C22.427 49.6431 22.4255 49.717 22.8112 47.1285C22.9185 46.4081 22.9272 46.392 23.1385 46.5256C23.4899 46.7475 24.4453 47.1035 25.344 47.3474L26.1813 47.5746L27.0957 49.4926C27.5986 50.5475 27.9746 51.4425 27.9311 51.4815C27.8877 51.5205 27.4733 51.676 27.0102 51.827C26.0325 52.146 25.7572 52.4085 25.7572 53.0219C25.7572 53.3291 25.8268 53.4917 26.0559 53.7195C26.4571 54.1185 26.7268 54.104 28.3273 53.5977L29.6513 53.1787L31.8688 53.3444C34.8389 53.5665 34.7051 53.574 35.1185 53.1629C35.4881 52.7954 35.5516 52.4854 35.348 52.0412C35.1176 51.5383 34.8806 51.4759 32.5749 51.3115C31.3827 51.2265 30.3491 51.1257 30.2783 51.0877C30.0958 50.9901 28.1898 46.9827 28.2848 46.8966C28.328 46.8575 29.8693 45.7897 31.7101 44.5236C34.8348 42.3745 35.1265 42.1977 36.1046 41.8594C45.097 38.7495 48.6037 31.1198 46.2338 19.821C45.851 17.9961 44.9671 15.0302 44.3031 13.3427C44.2449 13.1949 44.2911 13.1646 44.5762 13.1633C45.1074 13.161 46.1468 12.8886 46.7131 12.6032C47.6533 12.1294 48.3478 11.2143 48.5039 10.2434L48.567 9.8513L49.4725 9.89439C50.3694 9.93707 50.3809 9.93453 50.689 9.62814C50.9357 9.38282 51 9.23161 51 8.89677C51 8.29944 50.6208 7.93757 49.8944 7.84184L49.3536 7.7705L49.4359 7.29197C49.5668 6.53052 49.5009 5.59774 49.2811 5.10376C49.0193 4.51537 48.4466 3.89437 47.8508 3.55292C47.5874 3.40201 47.0612 3.05183 46.6814 2.77481C46.3016 2.49769 45.7769 2.20705 45.5155 2.1288C44.9074 1.9468 43.918 1.9593 43.359 2.15604ZM44.0902 4.11387C43.7316 4.26579 43.4241 4.73599 43.4579 5.08059L43.4885 5.39084L44.4513 5.47498C45.5106 5.56756 46.2497 5.80027 46.9276 6.25472L47.372 6.55268L47.405 6.29547C47.4469 5.96846 47.187 5.57162 46.7896 5.35568C46.6193 5.2632 46.1409 4.94472 45.7263 4.64789C44.9612 4.10015 44.4875 3.94548 44.0902 4.11387ZM42.3505 7.72203C40.7741 8.07648 39.6235 8.73011 38.3147 10.0146C36.9329 11.3708 35.9506 12.9338 35.0254 15.2481C34.5532 16.429 33.9883 18.4455 34.101 18.5471C34.1491 18.5905 34.5104 18.7217 34.9039 18.8387C35.2973 18.9556 35.9872 19.2299 36.4368 19.4481C39.1686 20.7736 40.3698 22.754 40.2383 25.7151C40.1818 26.9879 39.9995 27.7446 39.5041 28.7637C38.014 31.8286 34.4848 33.4024 30.0041 33C25.5857 32.6032 21.7234 30.6328 18.087 26.9204C16.3775 25.1753 14.7373 22.9851 13.5579 20.8725L13.1804 20.1964L10.9608 19.0407C8.22345 17.6153 7.60209 17.338 6.98113 17.2651C6.35742 17.1918 6.08394 17.44 6.08445 18.0787C6.08486 18.6827 6.96795 20.4814 7.49764 20.9572C8.10245 21.5004 9.66903 22.1075 10.4663 22.1075C10.6139 22.1075 10.8775 22.2377 11.0623 22.402C11.3366 22.6457 11.3938 22.7701 11.3938 23.1237C11.3938 23.4811 11.3371 23.6014 11.0473 23.8589C10.7133 24.1556 10.6745 24.1647 9.97655 24.1102C9.3652 24.0624 8.44726 23.8145 7.62978 23.4764C7.44859 23.4014 7.44041 23.4494 7.48078 24.3528C7.51747 25.1712 7.56662 25.387 7.82324 25.8543C8.31696 26.7535 8.53474 26.862 10.0758 26.9758C10.8032 27.0294 11.5242 27.0484 11.678 27.0179C12.1204 26.9298 12.6301 27.0691 12.9199 27.3574C13.4562 27.8906 13.1644 28.892 12.4186 29.0781C12.2674 29.1158 11.4825 29.1244 10.6743 29.0971L9.20475 29.0474L9.26638 29.3121C9.4767 30.2151 10.187 31.1583 10.8874 31.4649C11.4467 31.7097 12.7509 31.9648 13.4434 31.9648C13.758 31.9648 14.3416 31.891 14.7405 31.8008C15.4062 31.6502 15.4939 31.6501 15.8093 31.7996C16.2255 31.997 16.5148 32.5355 16.4157 32.9282C16.3168 33.3201 15.9335 33.6605 15.4435 33.7917C14.7995 33.9642 13.4519 34.0959 13.0292 34.0276L12.653 33.9669L12.7228 34.3123C13.2655 36.9979 14.5926 38.9081 16.6158 39.916C17.1887 40.2015 18.1855 40.5438 18.2517 40.478C18.2759 40.4539 18.158 40.0291 17.9897 39.5339C17.602 38.3938 17.601 38.1285 17.9823 37.7494C18.3818 37.3521 19.063 37.3276 19.413 37.6979C19.5464 37.8392 19.9405 38.7678 20.3408 39.8842C21.101 42.0041 21.3898 42.5347 22.2302 43.3545C23.2362 44.3354 24.5456 45.0305 26.0402 45.3768C26.5609 45.4975 26.5912 45.4923 26.96 45.2196C27.6972 44.6745 29.0076 43.255 29.6363 42.3203C30.4189 41.1569 30.9481 40.1218 31.3719 38.9258C31.5501 38.4228 31.7626 37.9096 31.8441 37.7853C32.0057 37.5391 32.5224 37.3633 32.8829 37.4318C33.1946 37.491 33.5924 37.9074 33.6567 38.2415C33.714 38.5399 33.3717 39.7225 32.9606 40.647C32.8209 40.9611 32.7066 41.2407 32.7066 41.2683C32.7066 41.2959 33.0631 41.0742 33.4987 40.7755C34.0682 40.385 34.5778 40.1409 35.3127 39.9063C37.9031 39.0792 40.1873 37.6427 41.7013 35.8886C43.2197 34.1294 44.1223 32.1161 44.6222 29.3734C44.8508 28.1184 44.8832 24.7235 44.6816 23.1237C44.2999 20.0937 43.1909 16.0194 42.0536 13.4697C41.5675 12.3798 41.5347 11.8604 41.9273 11.47C42.1952 11.2036 42.2604 11.1903 43.6484 11.1183C45.235 11.036 45.8333 10.8469 46.2313 10.3016C46.5421 9.87559 46.5632 9.13863 46.28 8.59465C45.9162 7.8957 45.3215 7.63707 44.0058 7.60567C43.4046 7.59124 42.7171 7.63962 42.3505 7.72203ZM23.9585 20.4206C23.5722 20.8047 23.5194 21.1283 23.7654 21.6014C23.9597 21.9752 24.2065 22.1075 24.7094 22.1075C25.4064 22.1075 25.8818 21.3813 25.6093 20.7329C25.3004 19.9977 24.5303 19.852 23.9585 20.4206Z" fill="#195093"/>
</g>
</svg>
