<svg width="57" height="56" viewBox="0 0 57 56" fill="none" xmlns="http://www.w3.org/2000/svg">
<g id="Animals icons">
<path id="Vector" fill-rule="evenodd" clip-rule="evenodd" d="M27.1123 12.1303C26.235 12.4742 25.6769 12.9945 25.3077 13.8125C25.118 14.2327 25.0923 14.5231 25.0532 16.6954L25.0098 19.1109L24.0812 19.5763C20.8835 21.1792 17.9746 23.2667 15.2103 25.942C14.5477 26.5835 14.1562 26.8964 14.1286 26.8066C14.1048 26.7293 13.9667 26.2708 13.8218 25.7876C13.464 24.5954 12.7727 23.2528 12.0939 22.4319C10.491 20.4932 7.72082 19.28 4.55187 19.1287L3.41356 19.0743L3.03973 19.4481L2.66602 19.8218L2.72541 21.0612C2.79607 22.5348 3.12025 23.9529 3.68494 25.2581C4.52405 27.1973 5.62044 28.4485 7.27248 29.352L7.78641 29.633L7.29674 29.9174C5.78237 30.797 4.69553 31.9481 3.94383 33.4683C3.1508 35.0721 2.69515 36.9815 2.69515 38.7012C2.69515 39.5077 2.70419 39.5385 3.04034 39.8746C3.37487 40.2092 3.41051 40.2198 4.19003 40.2198C5.78745 40.2198 7.81839 39.7358 9.34514 38.9913C10.9487 38.2092 12.1542 37.0659 12.9963 35.5284C13.3946 34.8015 14.0634 32.9986 14.0651 32.6477C14.0656 32.5313 14.0951 32.4072 14.1305 32.3718C14.1658 32.3364 14.7027 32.7916 15.3234 33.3833C16.6739 34.6707 19.0204 36.5709 20.3826 37.4801L21.369 38.1385L21.3725 40.2921C21.3757 42.231 21.3975 42.5031 21.5908 43.0196C22.0026 44.1202 23.1047 44.8872 24.2772 44.889C25.5603 44.8912 27.9302 43.8522 29.953 42.4008L30.76 41.8218L31.5759 41.8939C33.7884 42.0893 36.6004 41.8991 39.0417 41.3888C46.1711 39.8985 52.9931 35.2979 54.434 31.0088C54.6588 30.3398 54.6919 30.0957 54.651 29.4073C54.5925 28.4209 54.3949 27.8257 53.7824 26.7906C51.4859 22.9098 45.3001 19.1265 39.1939 17.8684L38.0772 17.6382L36.9553 16.5682C35.1596 14.8556 33.3705 13.6981 31.1733 12.8279C29.2204 12.0542 27.8894 11.8256 27.1123 12.1303ZM27.5731 14.4513C27.3812 14.6572 27.3661 14.8025 27.3661 16.4428V18.2122L27.5945 18.1473C29.7106 17.5461 31.2637 17.2903 33.0317 17.2515L34.2809 17.2241L33.9962 16.9926C32.9208 16.118 31.0812 15.1509 29.5145 14.6365C28.0872 14.1677 27.8576 14.1459 27.5731 14.4513ZM31.1671 19.6646C26.1071 20.4035 20.2625 23.8192 15.6043 28.7601L14.7786 29.6358L16.326 31.167C19.2355 34.0459 21.7147 35.8817 24.7773 37.4249C27.126 38.6084 29.3072 39.3081 31.6067 39.6156C33.4756 39.8657 37.4619 39.5487 39.3793 38.9978L39.7678 38.8862L39.5023 38.5631C38.35 37.1605 37.3159 35.208 36.7774 33.4175C35.9881 30.7938 36.0601 27.9445 36.9812 25.3462C37.5701 23.6851 38.7592 21.6166 39.6806 20.6506C39.8536 20.4692 39.9671 20.3206 39.9327 20.3206C39.8982 20.3206 39.3475 20.2076 38.7086 20.0695C36.2247 19.5325 33.1883 19.3694 31.1671 19.6646ZM41.6782 21.8181C38.9219 24.8149 37.8436 29.0309 38.8995 32.6834C39.3967 34.4035 40.4107 36.2123 41.6246 37.5444L42.166 38.1385L42.7105 37.952C43.6818 37.6194 46.2748 36.29 47.3145 35.5916C50.3371 33.5614 52.4432 31.1052 52.4432 29.6103C52.4432 27.7176 49.1028 24.3931 45.1794 22.3806C44.3049 21.9321 42.4965 21.1328 42.356 21.1328C42.3299 21.1328 42.0248 21.4412 41.6782 21.8181ZM5.08154 21.9572C5.12225 22.2576 5.26702 22.8901 5.40327 23.3627C5.96938 25.3257 7.02181 26.673 8.61131 27.4694C9.52119 27.9254 10.566 28.2473 11.5533 28.376C12.0313 28.4383 12.0356 28.4363 12.0356 28.1473C12.0356 27.6197 11.5239 25.868 11.1432 25.0924C10.5743 23.9335 9.52708 22.921 8.27911 22.3234C7.34284 21.8751 6.51763 21.6248 5.50114 21.4809L5.00752 21.4109L5.08154 21.9572ZM33.3894 22.2343C32.6764 22.8854 32.5873 23.5858 33.1491 24.1239C33.4751 24.4363 34.0434 24.51 34.4496 24.2926C34.8756 24.0647 35.2344 23.4669 35.2344 22.9853C35.2344 22.6079 35.1823 22.4911 34.9028 22.2413C34.442 21.8296 33.8355 21.8268 33.3894 22.2343ZM32.0398 24.7601C31.5834 24.9935 31.3902 25.344 31.0813 26.4985C30.3016 29.4116 30.5991 32.6157 31.8906 35.2179C32.2721 35.9865 32.6293 36.541 32.9863 36.9185C33.4648 37.4245 33.5571 37.4786 33.9421 37.4786C34.5197 37.4786 34.9713 37.0832 35.0481 36.51C35.098 36.1385 35.0506 36.0233 34.5437 35.2832C33.924 34.3783 33.4831 33.4205 33.1926 32.3488C33.0376 31.7765 33.001 31.2907 33.0021 29.8134C33.0033 28.1952 33.0308 27.8929 33.2422 27.1737C33.6421 25.8128 33.6597 25.6925 33.5105 25.3353C33.258 24.7311 32.5997 24.4737 32.0398 24.7601ZM45.7183 28.3931C44.9333 28.8345 44.9406 30.414 45.7294 30.8219C46.1143 31.0209 46.3821 31.0228 46.7566 30.8292C47.2241 30.5874 47.3668 30.2975 47.3668 29.5893C47.3668 29.0392 47.3293 28.9115 47.0876 28.6411C46.7485 28.2616 46.1462 28.1525 45.7183 28.3931ZM11.0711 30.9842C8.54359 31.5153 6.97165 32.5631 6.05284 34.3291C5.6247 35.1521 5.20286 36.4691 5.08225 37.3595L5.00905 37.9004L5.50196 37.8304C9.21712 37.3029 11.3294 35.2547 11.9724 31.5562C12.047 31.1281 12.0802 30.7811 12.0464 30.785C12.0125 30.7889 11.5737 30.8786 11.0711 30.9842ZM23.6096 40.7895C23.6096 42.1072 23.6189 42.1673 23.8589 42.4072C24.1611 42.7096 24.319 42.7152 25.0912 42.4521C25.9378 42.1636 27.8044 41.2243 27.7038 41.1375C27.6577 41.0977 27.1859 40.9136 26.6554 40.7283C26.1249 40.543 25.2226 40.173 24.6503 39.9061L23.6096 39.4208V40.7895Z" fill="#195093"/>
</g>
</svg>
