<svg width="56" height="56" viewBox="0 0 56 56" fill="none" xmlns="http://www.w3.org/2000/svg">
<g id="Traced Image" clip-path="url(#clip0_315_8005)">
<path id="Vector" fill-rule="evenodd" clip-rule="evenodd" d="M26.8514 0.0718959C26.3153 0.18674 25.5543 0.521537 24.3358 1.17866L23.0233 1.88654L20.9999 1.75386C19.228 1.63782 18.8845 1.64274 18.2372 1.79346C16.7002 2.15144 15.9083 2.71538 14.422 4.51055C13.8614 5.18769 13.3525 5.77744 13.2911 5.82108C13.2297 5.86472 12.4096 6.14921 11.4687 6.45327C8.30065 7.47713 7.38278 8.40551 6.45287 11.5264L5.97796 13.1202L4.50829 14.395C2.90584 15.7848 2.35634 16.4904 1.97932 17.6429C1.64092 18.677 1.60821 19.2729 1.79382 21.0216L1.96456 22.6295L1.09667 24.3976C0.106494 26.4149 -0.0494747 26.9963 0.0278534 28.3824C0.0915096 29.522 0.234681 29.9279 1.20495 31.7183L1.88657 32.9762L1.75412 34.9996C1.63807 36.7713 1.64299 37.115 1.79371 37.7623C2.15443 39.3109 2.70098 40.0763 4.52437 41.5864L5.82834 42.6664L6.40638 44.4204C7.03704 46.334 7.43703 47.0982 8.19806 47.8435C8.98949 48.6185 9.79559 49.0308 11.5299 49.5476L13.1272 50.0235L14.402 51.4944C15.7916 53.0978 16.4919 53.6434 17.6431 54.0201C18.6773 54.3585 19.2732 54.3912 21.0218 54.2056L22.6298 54.0349L24.3978 54.9028C26.4151 55.893 26.9966 56.0489 28.3827 55.9716C29.528 55.9076 29.9955 55.7425 31.7525 54.7809L32.9764 54.1112L34.9999 54.2446C36.7722 54.3614 37.1149 54.3566 37.7616 54.206C39.3234 53.8422 40.255 53.1626 41.7264 51.314L42.6014 50.2146L44.4274 49.6001C47.735 48.4867 48.6005 47.6204 49.551 44.471L50.0351 42.8674L51.4717 41.6213C53.0518 40.2509 53.6512 39.4841 54.0177 38.3646C54.3589 37.3218 54.3918 36.7296 54.2059 34.9776L54.0351 33.3697L54.9108 31.587C55.3924 30.6066 55.8162 29.6187 55.8527 29.3917C55.8893 29.1648 55.962 28.9527 56.0142 28.9204C56.0665 28.8882 56.1092 28.4187 56.1092 27.8773C56.1092 27.249 56.0696 26.9173 55.9999 26.9605C55.9397 26.9977 55.8905 26.9286 55.8905 26.807C55.8905 26.4583 55.5069 25.573 54.7812 24.2469L54.1115 23.023L54.2448 20.9996C54.3616 19.2273 54.3568 18.8845 54.2062 18.2379C53.8424 16.676 53.1629 15.7445 51.3142 14.273L50.2149 13.398L49.6003 11.572C48.487 8.26441 47.6206 7.39893 44.4713 6.44846L42.8676 5.96436L41.5987 4.50136C40.215 2.90591 39.5077 2.35576 38.3566 1.97907C37.3224 1.64066 36.7266 1.60796 34.9779 1.79357L33.3699 1.9643L31.6064 1.0986C30.6363 0.62249 29.5979 0.180396 29.2988 0.116302C28.7717 0.00320837 27.2966 -0.0234791 26.8514 0.0718959ZM27.3606 2.30457C27.0992 2.35597 26.1158 2.80047 25.1752 3.29244L23.4653 4.18702L21.2147 4.04626C17.9825 3.84413 17.8739 3.88974 15.8691 6.28954L14.6014 7.8069L12.6327 8.46971C10.3215 9.24769 10.0945 9.36035 9.58526 9.98193C9.13223 10.5347 9.09395 10.6267 8.47204 12.6595C8.20987 13.5166 7.9559 14.2865 7.90778 14.3703C7.85954 14.4542 7.15571 15.093 6.3436 15.7902C3.92696 17.8647 3.79363 18.1847 4.09146 21.1966L4.28287 23.1324L3.3464 24.9918C1.90068 27.8622 1.89828 28.1584 3.29828 30.8347L4.18859 32.5367L4.04465 34.7579C3.83509 37.9933 3.89054 38.126 6.28979 40.1304L7.80715 41.398L8.46996 43.3796C9.53746 46.5715 9.56524 46.5962 13.3436 47.7363C13.8549 47.8905 14.3283 48.0534 14.3956 48.098C14.4628 48.1428 15.0913 48.8437 15.7923 49.6558C17.8832 52.0784 18.1873 52.2052 21.1942 51.9089L23.1274 51.7184L25.0059 52.6567C27.8874 54.0958 28.1647 54.098 30.8337 52.7019L32.5344 51.8122L34.785 51.9529C38.0172 52.1551 38.1258 52.1095 40.1306 49.7097L41.3983 48.1923L43.3798 47.5295C46.5807 46.4589 46.5745 46.466 47.7564 42.6035C48.0904 41.512 47.9995 41.6215 49.9584 39.9487C52.0334 38.1769 52.203 37.7268 51.9074 34.7771L51.7164 32.8707L52.6552 31.0094C54.1004 28.1439 54.1029 27.8435 52.7022 25.1658L51.8124 23.465L51.9532 21.2144C52.1553 17.9823 52.1097 17.8737 49.7099 15.8688L48.1926 14.6012L47.5297 12.6196C47.1653 11.5298 46.7333 10.4381 46.5698 10.1938C46.0195 9.37096 45.4063 9.07357 42.4427 8.19179C41.5389 7.92294 41.6035 7.97861 39.9461 6.03754C38.1618 3.94793 37.7673 3.79841 34.8082 4.09L32.8776 4.28021L31.013 3.34286C29.4314 2.54782 28.2935 2.12935 27.9029 2.19913C27.866 2.20569 27.622 2.25316 27.3606 2.30457ZM27.2258 6.4443C26.5213 7.1489 27.0033 8.3121 27.9999 8.3121C28.3562 8.3121 28.5231 8.24308 28.7739 7.9924C29.4784 7.2878 28.9964 6.1246 27.9999 6.1246C27.6435 6.1246 27.4766 6.19361 27.2258 6.4443ZM21.8749 6.95705C14.3258 9.18108 8.46701 15.3569 6.67337 22.9811C6.11534 25.3536 5.96659 28.4217 6.29012 30.8897C7.37118 39.1367 13.1567 46.1191 21.1159 48.7826C23.3815 49.5408 25.4858 49.8746 27.9999 49.8746C30.522 49.8746 32.6156 49.5413 34.9089 48.7747C42.9819 46.076 48.7072 39.0381 49.7603 30.5181C49.9278 29.1633 49.9002 26.4389 49.7049 25.0385C48.5456 16.727 42.842 9.87211 34.8628 7.20085C33.1867 6.63975 32.6359 6.57238 32.246 6.88071C32.085 7.00813 31.8965 7.28419 31.8272 7.49419C31.6489 8.03429 31.9491 8.63957 32.4842 8.81927C32.6948 8.88993 33.4331 9.12836 34.1249 9.34897C42.6242 12.0593 48.2553 20.4422 47.5773 29.3749C47.404 31.6594 47.0247 33.3012 46.1909 35.3768C45.2453 37.7306 43.9792 39.6741 42.1726 41.5454C38.6548 45.1888 34.4667 47.1702 29.4226 47.5776C24.5539 47.9709 19.4863 46.38 15.6349 43.2491C14.1094 42.009 12.2945 39.9502 11.3034 38.3355C10.404 36.8703 9.57706 35.0379 9.1471 33.5572C7.79053 28.886 8.22321 23.7217 10.3334 19.3994C12.6747 14.6036 16.8889 10.9346 21.8749 9.35138C23.9566 8.69043 23.8805 8.72696 24.0984 8.28333C24.2666 7.94088 24.2784 7.81499 24.1725 7.49419C24.0129 7.01065 23.5843 6.66983 23.1452 6.67727C22.9579 6.68044 22.3862 6.80633 21.8749 6.95705ZM27.2375 11.1035C26.3206 11.5177 26.066 12.0417 25.8659 13.925C25.7151 15.3452 25.5051 16.1625 25.0725 17.0127C24.755 17.6366 24.4224 18.7759 24.2242 19.9182C23.9168 21.6908 23.5586 22.2359 23.0412 21.7185C22.8944 21.5717 22.6089 21.4206 22.4066 21.3827C22.2044 21.3449 20.71 21.3294 19.0858 21.3482C15.9678 21.3843 15.8639 21.4009 15.5199 21.9181C15.3931 22.1089 15.3615 23.5562 15.3342 30.4058C15.3162 34.9476 15.3308 38.8685 15.3668 39.1189C15.4071 39.3989 15.5412 39.6829 15.7153 39.8572L15.9985 40.1402H19.3791H22.7598L23.0332 39.8668C23.1836 39.7164 23.4081 39.5933 23.532 39.5933C23.6559 39.5933 24.6996 39.8352 25.8513 40.1306C27.0029 40.4261 28.3302 40.7214 28.8007 40.7868C29.2732 40.8526 31.2469 40.9058 33.2088 40.9058C37.2966 40.9058 37.8539 40.8319 38.9095 40.1497C39.6546 39.6681 40.1363 39.0982 40.5503 38.2082C40.7921 37.6884 40.8519 37.3912 40.8719 36.6066C40.8952 35.6999 40.9187 35.6133 41.2722 35.1301C41.9622 34.1872 42.272 33.0236 42.108 31.9918C42.0303 31.5031 42.0484 31.4158 42.2777 31.1715C42.4189 31.0211 42.6725 30.6027 42.8413 30.2418C43.1083 29.6711 43.1483 29.4536 43.1483 28.5738C43.1483 28.0174 43.1803 27.5621 43.2195 27.5621C43.2587 27.5621 43.5162 27.3333 43.792 27.0537C45.4381 25.3839 44.8071 22.4905 42.6182 21.6715C42.0127 21.445 41.8308 21.4371 37.1913 21.4371H32.3909L32.0986 20.8394C31.7067 20.0385 31.7095 19.2651 32.1084 18.1012C33.0621 15.3186 32.0909 12.5579 29.7401 11.369C28.8901 10.9392 27.8463 10.8284 27.2375 11.1035ZM28.1781 13.4801C28.1419 13.6154 28.1115 13.962 28.1108 14.2503C28.1082 15.137 27.7882 16.4022 27.2338 17.7183C26.8727 18.5755 26.6295 19.3726 26.4701 20.2207C26.1969 21.6744 25.9292 22.4462 25.4853 23.0589C25.1425 23.5321 24.4239 24.0101 23.7941 24.1841L23.4061 24.2911V30.7763V37.2615L24.1991 37.4031C24.6353 37.481 25.5827 37.7062 26.3045 37.9036C28.8368 38.5958 28.9628 38.609 33.0847 38.609C37.2022 38.609 37.3412 38.591 37.9897 37.9743C38.3606 37.6215 38.5069 37.3677 38.6148 36.8889C38.694 36.5376 38.6883 36.5308 38.3159 36.5308C37.7614 36.5308 37.2967 36.0388 37.2967 35.4516C37.2967 34.8318 37.6412 34.462 38.3383 34.3332C39.0316 34.205 39.3675 33.9599 39.6756 33.3568C40.0389 32.646 40.0078 32.484 39.5086 32.484C39.0051 32.484 38.6334 32.2404 38.4435 31.7861C38.1322 31.0409 38.5891 30.3649 39.4875 30.2414C40.404 30.1152 40.9061 29.5317 40.9061 28.5925V28.0809L39.7191 28.1578C38.7788 28.2187 38.4505 28.2007 38.1403 28.0711C37.3803 27.7535 37.2028 26.8004 37.7993 26.2398C38.0654 25.9897 38.1706 25.9731 39.8492 25.917C41.6542 25.8566 41.7621 25.8351 42.1913 25.4486C42.7608 24.936 42.3646 23.8561 41.5471 23.6926C41.36 23.6552 38.6007 23.6246 35.4153 23.6246H29.6236L29.3039 23.3049C28.8619 22.8628 28.8542 22.2066 29.2861 21.7747C29.452 21.6087 29.6453 21.4525 29.7155 21.4276C29.8107 21.3939 29.8034 21.2304 29.6871 20.7843C29.4299 19.7984 29.4856 18.8338 29.8656 17.6878C30.5138 15.7334 30.1823 14.2357 28.9401 13.5078C28.3656 13.1711 28.262 13.1674 28.1781 13.4801ZM17.6092 30.7887V37.9527H19.3592H21.1092V30.7887V23.6246H19.3592H17.6092V30.7887ZM0.0392284 27.9996C0.0392284 28.5711 0.0577128 28.8049 0.080244 28.5191C0.102775 28.2333 0.102775 27.7659 0.080244 27.4801C0.0577128 27.1943 0.0392284 27.4281 0.0392284 27.9996Z" fill="#C49C49"/>
</g>
<defs>
<clipPath id="clip0_315_8005">
<rect width="56" height="56" fill="white"/>
</clipPath>
</defs>
</svg>
