<svg width="56" height="56" viewBox="0 0 56 56" fill="none" xmlns="http://www.w3.org/2000/svg">
<g id="Traced Image">
<path id="Vector" fill-rule="evenodd" clip-rule="evenodd" d="M15.8047 6.12749C11.2098 6.71297 7.42678 10.0413 6.08213 14.6816C5.67372 16.0908 5.53952 17.3367 5.61345 19.032C5.71539 21.3689 6.27495 23.4207 7.47567 25.8595C7.98427 26.8924 8.02966 27.0398 7.87981 27.1698C7.53102 27.4725 7.17828 27.5807 6.21545 27.6803C5.22495 27.7828 4.53611 28.012 3.9375 28.4382C3.55031 28.714 0.722203 32.5353 0.431484 33.1756C0.133547 33.8317 0.152469 34.7997 0.476766 35.4929C0.617422 35.7937 1.03534 36.373 1.40536 36.7803L2.07812 37.5207V38.7743V40.0278L1.77734 40.0948C1.15041 40.2343 1.02988 40.283 0.699016 40.5307C0.158156 40.9355 0 41.3974 0 42.572C0 44.1063 0.156406 44.4606 1.39945 45.7416C2.54723 46.9245 3.08405 47.2507 3.88281 47.2507C4.6492 47.2507 5.20373 46.9342 6.16131 45.9503C7.03664 45.0508 7.43105 44.3781 7.43509 43.7781L7.4375 43.4226H8.04748H8.65747L9.83314 44.556C11.2832 45.9538 11.5912 46.0857 13.2739 46.0301C14.3106 45.9959 14.4326 45.9684 14.8019 45.6865C15.2846 45.318 15.5117 44.9081 15.6033 44.2402C15.6915 43.597 15.9375 43.4226 16.7566 43.4226C17.4429 43.4226 17.3715 43.3495 17.5562 44.241C17.6191 44.544 18.1801 45.2285 18.5107 45.4055C18.629 45.4688 19.0249 45.5629 19.3904 45.6145C19.9117 45.6882 20.1263 45.7796 20.3853 46.0386C20.6737 46.3272 20.7257 46.4749 20.7956 47.2068C20.9367 48.6839 21.6587 49.6044 22.8928 49.8806C23.8567 50.0962 24.5002 49.8455 25.5732 48.836C26.546 47.921 26.7939 47.8439 27.3256 48.2913C28.0821 48.9279 29.1744 49.0778 29.9972 48.6581C30.2486 48.5299 30.8825 48.0131 31.4057 47.5096C31.929 47.0063 32.4135 46.5945 32.4826 46.5945C32.6744 46.5945 33.048 46.8124 33.4395 47.1525C33.9456 47.592 34.4799 47.7163 35.6717 47.6722C36.5887 47.6381 36.766 47.5978 37.1676 47.3318C37.4182 47.1659 37.7589 46.8252 37.9248 46.5747C38.2073 46.1483 38.2289 46.0315 38.2633 44.7436C38.3 43.3751 38.3735 43.0945 38.6956 43.0945C38.7884 43.0945 39.412 43.6297 40.0813 44.2837C41.1945 45.3715 41.3481 45.4836 41.8831 45.5983C42.986 45.8348 43.5482 45.6055 44.7666 44.422C45.8789 43.3417 45.9663 43.3784 46.0577 44.9653C46.1309 46.234 46.3157 46.7292 46.9396 47.3272C47.4371 47.8041 47.998 48.0168 48.7504 48.014C49.504 48.0111 50.1161 47.755 50.6077 47.2367C51.1535 46.6615 51.3245 46.1326 51.3812 44.8445C51.4423 43.4574 51.2752 42.2759 50.9181 41.5713C50.5841 40.912 49.0934 39.1638 48.4835 38.716C47.8276 38.2344 46.9505 37.9539 46.1008 37.9539C45.2184 37.9539 44.6936 37.7475 44.4682 37.3116C44.1069 36.613 44.2619 36.1531 45.2047 35.1259C46.0784 34.1738 46.2667 33.6378 46.0521 32.7141C45.8045 31.648 45.7921 31.3336 45.9902 31.1355C46.3892 30.7365 46.7121 30.8932 47.8149 32.0203C48.8066 33.0338 48.8614 33.1147 48.9231 33.6535C49.0075 34.3914 49.3237 34.9957 49.8704 35.4636C50.3995 35.9165 50.7087 36.0152 52.5547 36.3208C53.7257 36.5146 54.0577 36.5343 54.4365 36.4318C55.3801 36.1767 56 35.3376 56 34.3156C56 33.586 55.6756 33.0442 54.6583 32.075C54.0572 31.5023 53.8785 31.3914 53.5565 31.3914C53.2715 31.3914 53.1135 31.4658 52.9455 31.6796C52.5578 32.1724 52.6462 32.4229 53.5391 33.3601C53.9902 33.8337 54.3594 34.2642 54.3594 34.3167C54.3594 34.3691 54.2896 34.5075 54.2043 34.6242C54.0512 34.8336 54.031 34.8332 52.591 34.5885C50.8972 34.3008 50.7165 34.1809 50.6088 33.2717C50.5077 32.4182 50.216 31.9812 48.8743 30.6738C47.846 29.6717 47.5436 29.4391 47.1128 29.3196C46.0772 29.032 44.9765 29.4628 44.4497 30.3616C44.0756 30.9999 44.007 31.6376 44.2297 32.4038C44.4966 33.3218 44.4687 33.4295 43.7714 34.175C43.0583 34.9372 42.8113 35.386 42.657 36.1999C42.4415 37.336 42.9987 38.5831 43.9957 39.1966C44.4031 39.4474 44.7208 39.5383 45.4722 39.619C47.2947 39.8148 47.1016 39.7263 48.1999 40.8689C49.5517 42.2751 49.5935 42.3721 49.6369 44.2002C49.6712 45.6455 49.6646 45.6977 49.405 45.9994C49.0617 46.3985 48.4584 46.4294 48.0952 46.0666C47.881 45.8526 47.8443 45.6742 47.7914 44.5892C47.7412 43.5606 47.6896 43.2878 47.4811 42.9504C47.116 42.3597 46.4155 41.9851 45.6759 41.9851C44.9066 41.9851 44.7505 42.0731 43.6813 43.1085C42.4765 44.2753 42.4982 44.2779 40.9689 42.7835C39.8973 41.7364 39.6897 41.5818 39.1954 41.4633C38.7735 41.3621 38.5243 41.3589 38.1836 41.4507C37.7145 41.577 37.0549 42.0795 36.8318 42.4806C36.7612 42.6077 36.6745 43.3644 36.6394 44.1622C36.561 45.9445 36.5296 45.9929 35.4518 45.9929C34.7633 45.9929 34.6772 45.9656 34.2879 45.6238C33.7238 45.1284 33.2677 44.9539 32.5382 44.9539C31.7307 44.9539 31.2939 45.1942 30.3516 46.1568C29.9305 46.5868 29.4491 47.011 29.282 47.0993C28.947 47.276 28.9448 47.2753 27.9301 46.6492C27.4795 46.371 27.29 46.3216 26.6875 46.3248C25.8069 46.3293 25.544 46.4646 24.475 47.4629C23.5842 48.2948 23.299 48.3944 22.8493 48.0303C22.6384 47.8594 22.5839 47.6809 22.5217 46.9567C22.4371 45.9723 22.1843 45.3798 21.599 44.7946C21.1014 44.2968 20.7134 44.1028 19.8785 43.9338C19.2221 43.8011 19.1952 43.7823 19.134 43.4179C19.0409 42.8643 18.7547 42.3806 18.3493 42.0914C18.0395 41.8705 17.8399 41.8323 16.8438 41.8034C15.8204 41.7739 15.6424 41.7977 15.2095 42.0222C14.584 42.3466 14.1535 42.899 13.9905 43.5867C13.9192 43.8875 13.8445 44.1951 13.8245 44.2703C13.7803 44.4367 12.7998 44.4553 12.2582 44.2999C12.0159 44.2305 11.5139 43.8283 10.8278 43.1543C9.56058 41.9093 9.12034 41.6784 8.00734 41.675C6.65066 41.671 6.05741 42.131 5.76013 43.4178C5.61717 44.0365 5.52727 44.1813 4.90569 44.7943C3.87242 45.8131 3.86925 45.813 2.7393 44.6647C1.72725 43.636 1.64062 43.459 1.64062 42.4212C1.64062 41.8496 1.64664 41.8436 2.32652 41.7305C2.8653 41.6408 3.43995 41.1263 3.66789 40.5292C3.81423 40.1463 3.84191 39.765 3.80855 38.5929C3.75987 36.881 3.6762 36.6618 2.63277 35.5103C2.03262 34.8482 1.96875 34.7315 1.96875 34.298C1.96875 33.8557 2.08152 33.6634 3.41797 31.8278C5.02742 29.6171 5.2558 29.4236 6.25734 29.4213C6.99059 29.4197 7.83694 29.1957 8.49133 28.8298C8.7722 28.6728 9.01119 28.5575 9.02234 28.5733C9.0335 28.5893 9.20763 28.8484 9.4092 29.1492C10.143 30.2441 10.8496 31.1211 11.1075 31.2572C11.6261 31.5309 12.2561 31.1454 12.2732 30.5439C12.28 30.3052 12.0396 29.883 11.348 28.9196C9.2703 26.0252 8.001 23.2951 7.48923 20.6202C7.25933 19.4188 7.28131 17.1401 7.53452 15.9134C8.33208 12.0487 11.072 9.0688 14.7247 8.09339C15.9457 7.76735 17.7279 7.69472 19.0103 7.91872C20.9652 8.26041 22.5566 9.04966 23.9782 10.3827C25.0196 11.3593 25.6715 12.2478 26.2456 13.473C29.002 19.3546 26.3679 26.6435 18.8692 33.8851C18.047 34.6792 17.3378 35.3289 17.2933 35.3289C17.2489 35.3289 16.5753 34.7207 15.7966 33.9774C15.018 33.2341 14.2723 32.5915 14.1399 32.5494C13.6793 32.4033 13.1344 32.8619 13.1285 33.4008C13.1258 33.6486 13.3155 33.9108 14.0273 34.6428C14.5236 35.153 15.362 35.9345 15.8904 36.3794C17.4021 37.6521 17.4951 37.6206 20.2736 34.8986C22.8266 32.3976 24.624 30.1835 26.0312 27.8065C26.4131 27.1614 26.7936 26.5203 26.8767 26.382C27.0084 26.1628 27.1013 26.1346 27.596 26.1632L28.1641 26.1961L28.2452 26.8523C28.3438 27.6499 28.7405 28.2653 29.3672 28.5926C29.747 28.791 30.0363 28.8259 31.5639 28.8575C34.0767 28.9095 33.959 28.9591 35.9297 27.0196C36.832 26.1315 37.718 25.3313 37.8984 25.2414C38.0789 25.1514 38.5033 25.0507 38.8415 25.0174C39.812 24.9219 40.2869 24.603 42.0547 22.8596C43.7784 21.1596 44.025 21.0028 44.9763 21.0014C45.8595 21 46.5561 20.6059 47.8073 19.3999C48.454 18.7765 49.0327 18.2664 49.0932 18.2664C49.3974 18.2664 49.5469 18.6282 49.5469 19.3638C49.5469 20.2851 49.8342 21.1141 50.3708 21.741C50.865 22.3183 51.0781 22.8368 51.0781 23.4617C51.0781 24.1445 50.8563 24.6195 50.2219 25.2949C49.5313 26.0301 49.209 26.6765 49.1369 27.4707C49.0516 28.4122 49.2623 29.0135 49.928 29.7289C50.3942 30.2297 50.5544 30.334 50.8568 30.334C51.2842 30.334 51.7344 29.8948 51.7344 29.4778C51.7344 29.3308 51.5435 28.9967 51.2969 28.7117C50.9435 28.3033 50.8594 28.122 50.8594 27.7681C50.8594 27.2187 50.9784 26.9909 51.628 26.2974C52.4756 25.3925 52.6461 24.9631 52.698 23.602C52.7411 22.4721 52.7306 22.4049 52.4068 21.7426C52.2221 21.3646 51.9175 20.8767 51.73 20.6583C51.3417 20.2059 51.1938 19.6921 51.1901 18.7815C51.185 17.5259 50.4644 16.7213 49.2774 16.6458C48.3691 16.5879 48.0989 16.7382 46.7578 18.046C46.1562 18.6327 45.5656 19.1413 45.4453 19.176C45.325 19.2109 44.8438 19.2909 44.3758 19.3538C43.908 19.4167 43.3174 19.5727 43.0633 19.7006C42.8094 19.8285 41.8879 20.6351 41.0156 21.493C40.1434 22.351 39.3312 23.1018 39.2109 23.1616C39.0906 23.2213 38.6982 23.3059 38.3389 23.3496C37.2442 23.4825 36.8293 23.7544 35.0445 25.5088L33.3936 27.1316L31.7089 27.1013L30.0241 27.0711L29.9433 26.4223C29.8092 25.3475 29.1434 24.587 28.201 24.4323L27.8004 24.3664L28.0591 23.6794C28.7019 21.9717 29.002 20.2586 28.9979 18.3211C28.9902 14.5999 27.6894 11.5225 25.1033 9.10675C23.6171 7.71846 21.6762 6.70816 19.6943 6.29122C18.7078 6.08374 16.7839 6.0028 15.8047 6.12749ZM15.9428 9.73872C12.2747 10.3564 9.43731 13.5413 9.219 17.286C9.07583 19.7428 9.9878 21.9588 11.8624 23.7094C14.288 25.9747 18.0255 26.4806 20.9767 24.9432C22.5331 24.1323 23.7006 22.9675 24.4894 21.4382C25.1943 20.0716 25.3162 19.5225 25.314 17.7195C25.3122 16.2914 25.2828 16.0465 25.0182 15.2586C24.2716 13.0356 22.5216 11.1381 20.3982 10.2488C19.0936 9.70252 17.3461 9.50247 15.9428 9.73872ZM15.7252 11.5458C14.4537 11.854 13.1226 12.7151 12.3016 13.7603L11.8123 14.3836L14.0644 14.4382C16.2683 14.4917 16.3212 14.4985 16.5255 14.7512C16.8164 15.1107 16.7917 15.5939 16.4659 15.9197L16.1975 16.1882H13.6289H11.0603L10.9857 16.6852C10.8974 17.2743 10.9667 19.0324 11.0858 19.2253C11.1502 19.3296 12.5654 19.3601 17.3375 19.3601H23.5057L23.5856 18.95C23.6922 18.4031 23.6946 17.1084 23.5899 16.5984L23.5057 16.1882H21.502C19.6405 16.1882 19.4778 16.1722 19.2101 15.9615C18.8577 15.6843 18.8216 15.1334 19.1307 14.7512C19.3302 14.5045 19.4163 14.4905 21.054 14.4382L22.7686 14.3836L22.3809 13.8764C21.519 12.7488 20.2451 11.9034 18.8677 11.5445C18.078 11.3389 16.5763 11.3394 15.7252 11.5458ZM11.922 21.2197C12.1814 21.7045 13.3593 22.8298 14.0145 23.2191C16.3142 24.5852 19.3131 24.37 21.334 22.6941C21.8268 22.2855 22.75 21.2353 22.75 21.0835C22.75 21.038 20.2873 21.0007 17.2774 21.0007C11.8366 21.0007 11.8055 21.0021 11.922 21.2197Z" fill="#C49C49"/>
</g>
</svg>
