<svg width="56" height="56" viewBox="0 0 56 56" fill="none" xmlns="http://www.w3.org/2000/svg">
<g id="Animals icons">
<path id="Vector" fill-rule="evenodd" clip-rule="evenodd" d="M18.3748 4.14724C15.323 4.97432 13.3913 9.06524 14.0216 13.3664C14.4823 16.51 15.956 18.9804 18.0957 20.1962C21.1534 21.9337 24.4334 20.0699 25.5564 15.9571C27.2224 9.855 22.9908 2.89634 18.3748 4.14724ZM35.6477 4.13885C33.3563 4.65857 31.3505 7.00035 30.466 10.1885C30.2039 11.1332 30.1863 11.3219 30.1921 13.1404C30.1979 14.9574 30.2164 15.1426 30.4772 16.0033C31.4129 19.0914 33.2856 20.8601 35.6194 20.8601C40.0849 20.8601 43.3742 14.1935 41.6469 8.64398C40.6265 5.36613 38.2164 3.55625 35.6477 4.13885ZM18.5012 6.32132C18.0032 6.55598 17.1047 7.5257 16.7704 8.18959C16.2432 9.23681 16.0709 10.1433 16.0727 11.8623C16.0742 13.2998 16.1004 13.5327 16.3549 14.3674C16.7528 15.6722 17.3693 16.7937 18.1089 17.558C20.278 19.7997 22.695 18.7314 23.5925 15.1342C23.8672 14.0328 23.8454 11.9083 23.5479 10.8062C22.9978 8.7681 21.8197 7.021 20.5912 6.42122C19.9588 6.11253 19.038 6.06857 18.5012 6.32132ZM35.7935 6.27787C34.0428 6.9346 32.5737 9.36932 32.2728 12.1129C32.0705 13.9575 32.4586 15.9713 33.2471 17.169C33.6188 17.7334 34.2655 18.3659 34.6777 18.5683C35.2256 18.8371 36.1527 18.8134 36.7276 18.5159C38.173 17.7677 39.4224 15.7965 39.8429 13.6005C40.3923 10.7308 39.498 7.6303 37.7977 6.51058C37.2613 6.15722 36.386 6.05558 35.7935 6.27787ZM5.98839 18.6539C4.0943 19.1162 2.73614 20.6019 2.17837 22.8219C1.9964 23.5458 1.97334 23.8602 2.02231 24.9497C2.09018 26.4589 2.31309 27.3518 2.9564 28.6908C4.45426 31.8085 7.10425 33.7433 9.87655 33.7433C12.2915 33.7433 14.1688 32.2018 14.866 29.646C15.1322 28.6706 15.1041 26.502 14.8114 25.425C14.5638 24.5141 13.8584 22.9557 13.3618 22.2222C12.9114 21.5571 11.8159 20.4139 11.1545 19.9187C10.4865 19.4187 9.35149 18.8725 8.54917 18.665C7.83311 18.4798 6.72132 18.475 5.98839 18.6539ZM47.6403 18.6156C47.057 18.7316 46.0931 19.1334 45.4091 19.5457C44.6823 19.9839 43.4854 21.1022 42.8735 21.9149C42.2722 22.7133 41.4786 24.3666 41.1914 25.419C40.8922 26.5157 40.8665 28.7875 41.1431 29.6988C41.4699 30.7752 41.9384 31.6101 42.5804 32.2604C43.6045 33.2975 44.6675 33.7399 46.1404 33.742C49.4096 33.747 52.5837 30.9167 53.7076 26.9949C54.0463 25.813 54.0987 23.9156 53.8231 22.8183C53.5191 21.6089 53.0579 20.734 52.3381 20.0014C51.1368 18.7791 49.3981 18.2661 47.6403 18.6156ZM6.20835 20.7756C3.35193 21.8598 3.40679 26.9829 6.30609 29.9007C7.47721 31.0792 8.59997 31.6274 9.83744 31.6248C10.4751 31.6234 10.7234 31.5731 11.1654 31.3554C12.332 30.7811 12.9627 29.4831 12.9617 27.6595C12.9602 24.9982 11.3038 22.2252 9.04446 21.1014C8.35949 20.7608 8.17417 20.7145 7.39309 20.6888C6.90908 20.6729 6.37599 20.7119 6.20835 20.7756ZM47.5244 20.8544C46.3681 21.2836 45.3119 22.1277 44.5023 23.2696C42.4088 26.2221 42.5736 30.241 44.8338 31.3539C45.3039 31.5853 45.5358 31.6333 46.1757 31.6314C48.8891 31.6229 51.5912 28.5254 51.915 25.0522C52.0807 23.2749 51.2985 21.5026 50.0851 20.906C49.503 20.6199 48.2254 20.594 47.5244 20.8544ZM27.1375 23.0132C25.1914 23.216 23.4407 24.0323 22.0236 25.3977C21.0953 26.2922 20.616 27.0175 19.6505 28.9888C18.0245 32.3085 16.966 33.8571 14.6506 36.3031C13.2478 37.7851 12.8566 38.3413 12.3029 39.641C10.7816 43.212 11.9181 47.5655 14.9931 49.9468C17.4207 51.8268 20.274 52.3975 23.5308 51.6546C25.3211 51.2463 26.3333 51.1251 27.9477 51.1262C29.6491 51.1273 30.7809 51.261 32.4206 51.6548C35.7938 52.4649 38.7835 51.8466 41.2561 49.8276C42.599 48.7311 43.7112 47.0024 44.1735 45.2931C44.485 44.1411 44.5055 41.9425 44.2149 40.8495C43.7506 39.1032 43.0402 37.9628 41.3454 36.2433C39.2651 34.1327 37.862 32.069 36.2742 28.7843C35.661 27.5159 35.2542 26.8217 34.7692 26.2162C32.9367 23.9284 30.0364 22.7113 27.1375 23.0132ZM27.2391 25.1094C27.1274 25.1353 26.7845 25.206 26.4772 25.2664C26.1698 25.327 25.5347 25.561 25.0659 25.7866C24.3929 26.1104 24.0368 26.3724 23.375 27.0304C22.579 27.8218 22.4938 27.952 21.6913 29.6023C19.9116 33.262 18.6377 35.1485 16.2637 37.6391C14.5346 39.4533 13.996 40.4429 13.7725 42.2176C13.4919 44.4448 14.4266 46.7777 16.165 48.1889C16.8976 48.7836 18.1564 49.4241 19.0605 49.6623C20.1139 49.9398 21.7985 49.9032 23.226 49.5719C25.1855 49.1171 25.9177 49.0348 28.0011 49.0348C30.0977 49.0348 30.7378 49.1081 32.9416 49.6004C36.1209 50.3106 38.5067 49.6882 40.5211 47.6227C41.2731 46.8515 41.8989 45.7206 42.1758 44.6326C42.3806 43.8274 42.3787 42.1539 42.1719 41.3607C41.7973 39.9233 41.3529 39.2384 39.7173 37.5776C37.6434 35.4718 36.0336 33.1013 34.4488 29.8194C33.5514 27.961 32.9541 27.1186 32.0518 26.4385C31.4072 25.9528 30.499 25.5016 29.7748 25.3073C29.1637 25.1433 27.6144 25.0225 27.2391 25.1094ZM31.596 30.7355C30.9935 31.0346 30.8682 31.7981 31.3352 32.3242C31.5735 32.5926 31.6955 32.6465 32.0651 32.6465C32.4346 32.6465 32.5566 32.5926 32.7949 32.3242C33.2677 31.7917 33.1346 31.0263 32.5182 30.7319C32.1091 30.5366 31.9958 30.537 31.596 30.7355ZM33.6284 34.255C33.5105 34.3015 33.3117 34.47 33.1868 34.6295C32.8014 35.121 32.9309 35.5881 33.7907 36.8086C34.6513 38.0301 35.8469 39.4993 36.6008 40.2616C37.0818 40.7479 37.174 40.7983 37.5816 40.7983C38.3455 40.7983 38.8156 40.1045 38.5169 39.418C38.4436 39.2493 38.0682 38.7632 37.6829 38.3379C36.8867 37.4589 35.8555 36.1414 35.2271 35.2001C34.6608 34.3519 34.1492 34.0494 33.6284 34.255Z" fill="#195093"/>
</g>
</svg>
