<svg width="56" height="56" viewBox="0 0 56 56" fill="none" xmlns="http://www.w3.org/2000/svg">
<g id="Traced Image" clip-path="url(#clip0_315_8007)">
<path id="Vector" fill-rule="evenodd" clip-rule="evenodd" d="M24.7504 0.161576C15.3232 1.42628 7.11686 7.36687 2.8392 16.023C0.753855 20.243 -0.0860352 24.0216 0.0312148 28.6558C0.0943242 31.1481 0.270199 32.4772 0.822215 34.6324C1.31856 36.5702 1.81731 37.8929 2.83745 39.9762C7.14726 48.7777 15.744 54.8576 25.3456 55.8948C26.9091 56.0637 30.4932 55.9742 32.0465 55.7276C33.542 55.49 35.7928 54.9103 37.1481 54.4138C37.741 54.1964 39.0137 53.633 39.9762 53.1616C46.3664 50.032 51.492 44.4887 54.1404 37.8433C54.9756 35.7478 55.6687 32.9765 55.8442 31.0317C55.8864 30.5638 55.9633 30.1548 56.0149 30.1229C56.0667 30.091 56.109 29.0804 56.109 27.8773C56.109 26.6742 56.0664 25.7161 56.0145 25.7482C55.9624 25.7804 55.8856 25.4264 55.8436 24.9617C55.737 23.7786 55.3937 22.067 54.9639 20.5743C53.4016 15.1493 49.91 9.94462 45.347 6.239C43.1736 4.47401 39.7901 2.55361 37.1481 1.58542C35.7995 1.09126 33.5498 0.511029 32.0465 0.269639C30.4872 0.0192793 26.2762 -0.0430645 24.7504 0.161576ZM26.0545 2.29767C23.9353 2.47354 21.2387 3.10453 19.2226 3.89619C15.7981 5.24084 12.9003 7.12756 10.1882 9.77859C6.27379 13.6049 3.73761 18.2217 2.68017 23.446C1.05278 31.4866 3.88778 40.0868 10.1865 46.2169C14.332 50.2515 19.1505 52.6902 24.6637 53.5442C26.3063 53.7986 29.6929 53.7986 31.3355 53.5442C37.0726 52.6556 42.1531 49.9976 46.3211 45.7043C54.0364 37.7573 55.9141 26.6776 51.1648 17.1224C49.8106 14.3978 48.3957 12.4134 46.2206 10.1882C42.6697 6.55564 38.4431 4.11154 33.6324 2.90929C31.3919 2.3494 28.3698 2.1055 26.0545 2.29767ZM25.1559 7.38383C18.431 8.30881 12.4868 12.5873 9.39612 18.7275C8.76087 19.9894 7.84015 22.5159 7.7031 23.373C7.57798 24.1553 8.04928 24.7402 8.80473 24.7402C9.38573 24.7402 9.7132 24.4449 9.90482 23.7483C10.8347 20.3681 12.2795 17.7159 14.4727 15.3633C18.893 10.6214 25.5075 8.51542 31.8087 9.84356C38.1697 11.1844 43.5169 15.9271 45.5636 22.0439C47.5933 28.1095 46.4364 34.6142 42.4324 39.648C41.7736 40.4762 40.0698 42.1332 39.2105 42.7813C34.9136 46.022 29.3674 47.263 24.1893 46.1426C19.6167 45.1532 15.6072 42.51 12.8447 38.6637C11.8288 37.2492 10.706 34.9272 10.174 33.1409C9.72687 31.6396 9.55395 31.3555 9.02534 31.2545C8.59801 31.1728 8.09095 31.3892 7.86443 31.7498C7.57164 32.2163 7.6319 32.641 8.25567 34.5081C10.0044 39.7422 13.6936 44.0365 18.5777 46.523C23.6168 49.0884 29.3554 49.4979 34.7229 47.675C40.7377 45.6322 45.6255 40.7424 47.6763 34.7164C49.171 30.3242 49.171 25.6749 47.6763 21.2828C46.2175 16.9966 43.3118 13.2322 39.484 10.6702C36.8713 8.92142 33.6395 7.73306 30.4087 7.33308C29.1735 7.18017 26.4447 7.20653 25.1559 7.38383ZM20.6631 16.288L20.3434 16.6077V21.7568V26.9058H19.5693C18.8597 26.9058 18.7687 26.9324 18.4756 27.2255C18.2249 27.4763 18.1559 27.6432 18.1559 27.9996C18.1559 28.3559 18.2249 28.5228 18.4756 28.7736C18.7687 29.0668 18.8597 29.0933 19.5693 29.0933H20.3434V30.1871V31.2808H19.5693C18.8597 31.2808 18.7687 31.3074 18.4756 31.6005C18.0254 32.0507 18.0254 32.6985 18.4756 33.1486C18.7687 33.4418 18.8597 33.4683 19.5693 33.4683H20.3434V37.5236V41.5789L20.6631 41.8986C21.1132 42.3488 21.761 42.3488 22.2112 41.8986L22.5309 41.5789V37.5236V33.4683H26.5862H30.6414L30.9612 33.1486C31.4113 32.6985 31.4113 32.0507 30.9612 31.6005L30.6414 31.2808H26.5862H22.5309V30.1922V29.1035L27.5895 29.0692C32.4764 29.0359 32.6724 29.0265 33.3669 28.7922C35.2784 28.1474 36.9501 26.4541 37.5464 24.5589C37.9003 23.4338 37.8912 21.586 37.5262 20.4715C36.8572 18.4296 35.1902 16.8228 33.1181 16.2225C32.2502 15.9712 32.1776 15.9683 26.6116 15.9683H20.9828L20.6631 16.288ZM22.5309 22.5246V26.9058H27.0004C29.5607 26.9058 31.7214 26.8585 32.059 26.7949C32.9023 26.6361 33.7265 26.1998 34.3381 25.5881C36.5645 23.3618 35.7588 19.6647 32.7814 18.4454C32.2329 18.2207 32.0215 18.2103 27.3707 18.1775L22.5309 18.1434V22.5246ZM0.0457617 27.9996C0.0457617 29.2328 0.0617305 29.7372 0.0811992 29.1207C0.100668 28.5041 0.100668 27.495 0.0811992 26.8785C0.0617305 26.262 0.0457617 26.7664 0.0457617 27.9996ZM7.53806 27.2255C6.83357 27.9301 7.31559 29.0933 8.31211 29.0933C8.66845 29.0933 8.83536 29.0243 9.08615 28.7736C9.79064 28.069 9.30862 26.9058 8.31211 26.9058C7.95576 26.9058 7.78886 26.9749 7.53806 27.2255Z" fill="#C49C49"/>
</g>
<defs>
<clipPath id="clip0_315_8007">
<rect width="56" height="56" fill="white"/>
</clipPath>
</defs>
</svg>
