<svg width="56" height="56" viewBox="0 0 56 56" fill="none" xmlns="http://www.w3.org/2000/svg">
<g id="Traced Image" clip-path="url(#clip0_315_8011)">
<path id="Vector" fill-rule="evenodd" clip-rule="evenodd" d="M31.0929 1.04339C29.5451 1.46022 29.7796 1.25164 20.8362 10.1698L12.5237 18.4587L11.7047 18.7014C10.2999 19.1176 9.37219 19.7063 8.30567 20.8582C7.32786 21.9144 6.45341 23.8404 6.45341 24.938C6.45341 25.2146 3.15892 39.7437 2.73334 41.3438C2.65044 41.6556 2.5322 41.7739 2.09645 41.9807C1.42019 42.3018 0.758905 42.9768 0.362968 43.7501L0.0549676 44.3516L0.0233582 49.3274C-0.00103243 53.157 0.0232488 54.3622 0.128796 54.5594C0.45003 55.1596 -0.966267 55.1251 23.338 55.1251H45.8116L46.1481 54.7885C46.6175 54.3191 46.6175 53.7435 46.1481 53.2741L45.8116 52.9376H36.6325H27.4534L27.4525 49.2462C27.4521 47.2159 27.4009 45.2416 27.3389 44.8589C27.1325 43.587 26.3861 42.538 25.2982 41.9906C25.0097 41.8454 24.7656 41.7266 24.7558 41.7266C24.7459 41.7266 23.9409 38.2867 22.967 34.0822L21.1961 26.4379L27.6329 20.0003L34.0697 13.5628L38.1991 17.691L42.3284 21.8193V24.4969V27.1745L39.43 30.0803C36.6565 32.8607 36.5315 33.0039 36.5315 33.4016C36.5315 33.7261 36.8466 34.4038 37.967 36.4895C38.7564 37.9592 39.526 39.259 39.677 39.3778C40.1176 39.7244 40.6418 39.6616 41.0954 39.208C41.4304 38.873 41.473 38.7722 41.4191 38.4405C41.385 38.2303 40.8374 37.0957 40.2022 35.9188C39.5669 34.7421 39.0472 33.746 39.0472 33.7052C39.0472 33.6644 40.1673 32.5118 41.5363 31.1437L44.0255 28.6563H46.2677H48.5098L51.0236 31.1718C53.1669 33.3167 53.5202 33.7156 53.421 33.8789C52.847 34.8229 51.0784 38.2931 51.0784 38.4755C51.0784 39.3766 52.2175 39.9293 52.8762 39.3477C53.313 38.9621 55.9112 34.0534 55.9758 33.492L56.0297 33.0231L53.1165 30.097L50.2034 27.1709V24.4543V21.7378L50.5385 21.0571C51.2273 19.6581 51.2263 18.2432 50.5357 16.7601C50.2148 16.071 49.7368 15.5685 43.116 8.96061C35.4952 1.35479 35.6009 1.44699 34.0548 1.04832C33.2367 0.837441 31.866 0.835144 31.0929 1.04339ZM31.8434 3.17632C31.1201 3.32463 30.2947 3.84175 29.7805 4.46902C28.3852 6.17079 28.9007 8.83024 30.8293 9.87991C33.1318 11.1331 35.9687 9.64104 36.1752 7.06799C36.2487 6.15296 36.0655 5.44104 35.5686 4.71063C34.7525 3.51122 33.243 2.88932 31.8434 3.17632ZM32.297 5.65771C32.1636 5.68199 31.9299 5.84999 31.7774 6.03122C31.3967 6.48371 31.408 7.00269 31.8083 7.4508C32.0649 7.73791 32.1962 7.79555 32.594 7.79555C32.9918 7.79555 33.1232 7.73791 33.3798 7.4508C34.1035 6.64077 33.3897 5.45875 32.297 5.65771ZM21.1101 13.0699C17.0285 17.152 15.5422 18.7032 15.7122 18.7032C15.8413 18.7032 16.3987 18.9294 16.9509 19.2059C18.373 19.9177 19.4559 20.9973 20.1604 22.4058C20.4419 22.9683 20.6722 23.5095 20.6722 23.6084C20.6722 23.7074 23.1795 21.2814 26.2439 18.2173C29.3085 15.1532 31.7952 12.6129 31.7699 12.572C31.7445 12.5311 31.5136 12.4642 31.2566 12.4235C30.464 12.2981 29.2423 11.6178 28.5053 10.8913C27.6127 10.0117 27.1278 9.11811 26.8241 7.7926L26.7425 7.43669L21.1101 13.0699ZM38.3015 8.03268C38.0948 9.06211 37.5484 10.0106 36.565 11.0475L35.6688 11.9924L40.2837 16.5932C44.0063 20.3044 44.9834 21.2217 45.3362 21.3365C45.9112 21.5235 46.77 21.5072 47.2618 21.3C47.7552 21.0921 48.3538 20.5014 48.6027 19.9765C48.8721 19.4089 48.8585 18.3839 48.5739 17.799C48.4212 17.4852 46.7499 15.738 43.3868 12.3769L38.425 7.41788L38.3015 8.03268ZM45.4919 18.1479C45.2412 18.3987 45.1722 18.5656 45.1722 18.9219C45.1722 20.0903 46.7025 20.4401 47.2375 19.394C47.7857 18.322 46.3456 17.2941 45.4919 18.1479ZM12.2503 20.8782C11.329 21.1761 10.8237 21.4731 10.2087 22.0785C8.18055 24.0749 8.14314 27.2262 10.1237 29.2352C12.0641 31.2034 15.2246 31.2263 17.1984 29.2865C18.2278 28.2749 18.7034 27.1394 18.7034 25.6931C18.7034 23.8234 17.7383 22.1877 16.0922 21.2677C15.0274 20.6726 13.3974 20.5073 12.2503 20.8782ZM44.6253 24.9836V26.4688H46.2659H47.9065V24.9786V23.4883L47.5511 23.5807C47.0898 23.7003 45.438 23.7058 44.9807 23.5891L44.6253 23.4983V24.9836ZM13.056 24.8033C12.5639 25.2019 12.4552 25.7344 12.7605 26.2512C13.1268 26.8713 13.8943 26.9765 14.4262 26.4796C15.1442 25.8088 14.6817 24.6063 13.7079 24.6118C13.4776 24.6132 13.1845 24.6992 13.056 24.8033ZM6.34797 35.6921C5.61319 38.87 5.03306 41.4913 5.05887 41.517C5.08469 41.5428 8.99309 41.5513 13.7442 41.5359L22.3826 41.5079L21.0453 35.7657C20.3098 32.6075 19.7035 30.0111 19.698 29.9962C19.6924 29.9811 19.3063 30.3502 18.8399 30.8165C17.4143 32.2418 15.6803 32.9592 13.6722 32.9544C11.6334 32.9496 10.1112 32.3136 8.62734 30.8467L7.68398 29.9141L6.34797 35.6921ZM3.22684 43.9045C2.7854 44.1007 2.42414 44.5107 2.29453 44.9623C2.23426 45.1724 2.18778 46.9908 2.18778 49.136V52.9376H13.6722H25.1565V48.9957C25.1565 45.292 25.1435 45.0283 24.9414 44.6323C24.7941 44.3434 24.5765 44.1381 24.2507 43.9803C23.7773 43.7513 23.7245 43.7501 13.6649 43.7543C5.48401 43.7578 3.4924 43.7865 3.22684 43.9045ZM5.50917 47.4439C4.62159 48.1629 5.08141 49.4376 6.2282 49.4376C6.42092 49.4376 6.6692 49.3166 6.87931 49.1203C7.59736 48.4495 7.13481 47.2469 6.16105 47.2525C5.9307 47.2538 5.63758 47.3399 5.50917 47.4439ZM10.5087 47.5866C10.0393 48.056 10.0393 48.6316 10.5087 49.101L10.8452 49.4376H13.689H16.5327L16.8525 49.1179C17.1031 48.8671 17.1722 48.7002 17.1722 48.3438C17.1722 47.9875 17.1031 47.8206 16.8525 47.5698L16.5327 47.2501H13.689H10.8452L10.5087 47.5866ZM20.6029 47.4439C19.7139 48.164 20.1753 49.4376 21.3251 49.4376C21.8157 49.4376 22.3128 48.8773 22.3128 48.3246C22.3128 47.4724 21.246 46.9229 20.6029 47.4439ZM49.2106 53.2573C48.3056 54.1622 49.3717 55.5607 50.5157 54.9692C51.0088 54.7141 51.2128 54.0611 50.9562 53.5593C50.6031 52.8687 49.7473 52.7207 49.2106 53.2573Z" fill="#C49C49"/>
</g>
<defs>
<clipPath id="clip0_315_8011">
<rect width="56" height="56" fill="white"/>
</clipPath>
</defs>
</svg>
